<svg width="440" height="106" viewBox="0 0 440 106" fill="none" xmlns="http://www.w3.org/2000/svg">
<g clip-path="url(#clip0_1997_8733)">
<path d="M439.83 0H1V105.89H439.83V0Z" fill="white"/>
<path fill-rule="evenodd" clip-rule="evenodd" d="M282.99 38.6699C283.44 38.2099 284.06 37.9499 284.7 37.9399H286.12L354.22 37.3199C355.56 37.3099 356.66 38.3899 356.67 39.7299L356.89 64.0499C356.9 65.3899 355.82 66.4899 354.48 66.4999L286.38 67.1099H284.96C284.31 67.1299 283.7 67.3899 283.25 67.8499L279.84 71.3199C279.39 71.7799 278.77 72.0399 278.13 72.0499L270.42 72.1199C269.77 72.1199 269.15 71.8799 268.69 71.4199L265.22 68.0099C264.76 67.5599 264.14 67.3099 263.49 67.3099H262.07L257.21 67.3699C255.87 67.3799 254.77 66.2999 254.76 64.9599L254.54 40.6399C254.53 39.2999 255.61 38.1999 256.95 38.1899L261.81 38.1499H263.23C263.88 38.1299 264.5 38.3799 264.96 38.8299L268.43 42.2399C268.89 42.6899 269.51 42.9399 270.16 42.9399L277.87 42.8699C278.52 42.8699 279.13 42.5999 279.58 42.1399L282.99 38.6699Z" fill="#23B689"/>
<path fill-rule="evenodd" clip-rule="evenodd" d="M283.35 67.0799C283.8 66.6199 284.42 66.3499 285.06 66.3499L286.48 66.3299L325.4 65.8599C326.74 65.8399 327.85 66.9199 327.86 68.2599L328.15 92.5799C328.17 93.9199 327.09 95.0299 325.75 95.0399L286.83 95.5099L285.41 95.5299C284.76 95.5299 284.15 95.7999 283.7 96.2599L280.3 99.7399C279.85 100.2 279.23 100.47 278.59 100.47L270.88 100.56C270.23 100.56 269.61 100.32 269.15 99.8699L265.67 96.4699C265.21 96.0199 264.59 95.7699 263.94 95.7799L262.52 95.7999L257.66 95.8599C256.32 95.8799 255.21 94.7999 255.2 93.4599L254.91 69.1399C254.89 67.7999 255.97 66.6899 257.31 66.6799L262.17 66.6199L263.59 66.5999C264.24 66.5999 264.86 66.8399 265.32 67.2899L268.8 70.6899C269.26 71.1399 269.88 71.3899 270.53 71.3799L278.24 71.2899C278.88 71.2899 279.5 71.0199 279.95 70.5599L283.35 67.0799Z" fill="#7E69AD"/>
<path fill-rule="evenodd" clip-rule="evenodd" d="M158.75 39.24C159.2 38.78 159.82 38.52 160.46 38.51H161.88L229.98 37.89C231.32 37.88 232.42 38.96 232.43 40.3L232.65 64.62C232.66 65.96 231.58 67.06 230.24 67.07L162.14 67.68H160.72C160.07 67.7 159.46 67.96 159.01 68.42L155.6 71.89C155.15 72.35 154.53 72.61 153.89 72.62L146.18 72.69C145.53 72.69 144.91 72.45 144.45 71.99L140.98 68.58C140.52 68.13 139.9 67.88 139.25 67.88H137.83L132.97 67.94C131.63 67.95 130.53 66.87 130.52 65.53L130.3 41.21C130.29 39.87 131.37 38.77 132.71 38.76L137.57 38.72H138.99C139.64 38.7 140.26 38.95 140.72 39.4L144.19 42.81C144.65 43.26 145.27 43.51 145.92 43.51L153.63 43.44C154.28 43.44 154.89 43.17 155.34 42.71L158.75 39.24Z" fill="#23B689"/>
<path fill-rule="evenodd" clip-rule="evenodd" d="M159.11 67.64C159.56 67.18 160.18 66.91 160.82 66.91L162.24 66.89L201.16 66.42C202.5 66.4 203.61 67.48 203.62 68.82L203.91 93.14C203.93 94.48 202.85 95.59 201.51 95.6L162.59 96.07L161.17 96.0899C160.52 96.0899 159.91 96.36 159.46 96.82L156.06 100.3C155.61 100.76 154.99 101.03 154.35 101.03L146.64 101.12C145.99 101.12 145.37 100.88 144.91 100.43L141.43 97.03C140.97 96.58 140.35 96.3299 139.7 96.3399L138.28 96.36L133.42 96.42C132.08 96.44 130.97 95.3599 130.96 94.0199L130.67 69.6999C130.65 68.3599 131.73 67.25 133.07 67.24L137.93 67.18L139.35 67.16C140 67.16 140.62 67.4 141.08 67.85L144.56 71.25C145.02 71.7 145.64 71.95 146.29 71.94L154 71.85C154.64 71.85 155.26 71.58 155.71 71.12L159.11 67.64Z" fill="#7E69AD"/>
<path d="M330.14 33.7299C325.35 26.0299 331.6 25.6599 334.27 27.7399C338.27 30.8599 339.23 35.3899 341.1 36.3199C344.76 38.1199 348.61 32.0899 347.77 29.0399C346.79 25.4399 344.73 21.3799 343.44 20.7499C341.72 19.8999 339.53 21.6499 336.34 23.4499C333.57 25.0199 329.08 22.3599 332.83 19.6099C338.02 15.7999 342.95 13.4899 345.27 14.3699C347.1 15.0699 348.92 16.5199 350.72 19.4999C353.03 23.3399 353.74 25.2699 354.34 25.6299C355.7 26.4399 356.97 17.7799 357.14 9.68993C357.26 4.07993 363.47 4.39993 363.25 10.4899C362.84 21.9499 359.39 30.4499 360.33 30.7899C360.98 31.0299 364.57 25.1899 367.16 15.6899C368.33 11.3999 374.44 12.7299 372.43 18.5699C369.77 26.3099 365.26 34.4699 366.28 35.2299C366.99 35.7599 371.73 28.5199 373.89 25.6399C377.29 21.1199 380.86 25.1899 378.56 28.3399C369.57 40.6599 368.46 41.0799 365.32 49.1199C360.87 60.5199 340.25 59.1499 336.86 46.6999C334.53 38.1599 332.7 37.8499 330.12 33.7099L330.14 33.7299Z" fill="#D59D7A"/>
<path fill-rule="evenodd" clip-rule="evenodd" d="M331.45 32.01C326.66 24.31 332.91 23.94 335.58 26.02C339.58 29.14 340.54 33.67 342.41 34.6C346.07 36.4 348.82 31.41 347.99 28.36C347.01 24.76 345.59 20.65 344.31 20.02C342.59 19.17 340.85 19.93 337.67 21.73C334.9 23.3 330.41 20.64 334.16 17.89C339.35 14.08 344.28 11.77 346.6 12.65C348.43 13.35 350.25 14.8 352.05 17.78C354.36 21.62 353.75 21.84 354.36 22.2C355.72 23.01 354.73 14.68 355.48 6.58004C355.64 4.90004 361.59 2.88004 361.38 8.97004C361.25 12.5 360.14 15.59 359.68 18.43C358.65 24.8 358.19 29.36 360.33 30.93C362.43 27.2 364.35 22.18 366.08 15.85C367.25 11.56 372.95 12.33 371.66 16.36C370.36 20.4 368.72 21.89 367.37 25.6C366.12 29.05 364.81 34.11 366.35 35.21C369.46 30.52 371.73 27.22 373.18 25.3C376.58 20.78 379.75 24.41 377.45 27.57C368.46 39.89 365.06 38.92 361.92 46.96C357.47 58.36 339.88 56.97 336.49 44.51C334.16 35.97 334.07 36.15 331.5 32.01H331.45Z" fill="#ECC297"/>
<path fill-rule="evenodd" clip-rule="evenodd" d="M255.38 26.7599L256.61 4.32993C256.68 3.08993 257.75 2.13993 259 2.20993L264.86 2.52993C265.46 2.55993 266.02 2.82993 266.43 3.26993L269.46 6.61993C269.86 7.05993 270.42 7.32993 271.03 7.35993L278.21 7.74993C278.81 7.77993 279.4 7.57993 279.85 7.17993L283.23 4.17993C283.68 3.77993 284.27 3.57993 284.87 3.60993L341.42 6.70993C342.67 6.77993 343.63 7.83993 343.56 9.07993L342.33 31.5099C342.26 32.7499 341.19 33.6999 339.94 33.6299L283.39 30.5299C282.79 30.4999 282.2 30.6999 281.75 31.0999L278.37 34.0999C277.92 34.4999 277.33 34.6999 276.73 34.6699L269.55 34.2799C268.95 34.2499 268.39 33.9799 267.98 33.5299L264.95 30.1799C264.55 29.7399 263.98 29.4699 263.38 29.4399L257.52 29.1199C256.27 29.0499 255.31 27.9899 255.38 26.7499V26.7599Z" fill="#F04F6B"/>
<g opacity="0.1">
<path d="M343.46 20.7699C341.73 19.9099 339.23 21.6899 336.05 23.4399C333.29 24.9599 328.77 22.2999 332.5 19.6299C337.66 15.9199 342.82 13.6099 345.15 14.4999L343.45 20.7799L343.46 20.7699Z" fill="black"/>
</g>
<path fill-rule="evenodd" clip-rule="evenodd" d="M343.91 19.87C341.82 19.22 338.39 22.39 335.22 24.14C332.46 25.66 327.6 22.1 331.33 19.43C336.49 15.72 344.13 11.91 346.46 12.8L343.92 19.87H343.91Z" fill="#ECC297"/>
<path d="M86.8299 51.03C90.7199 43.96 92.4199 44.12 95.5799 41C101.5 35.22 96.0299 33.57 93.2399 34.81C89.0299 36.68 87.2099 40.51 85.3599 40.91C81.7599 41.7 79.6199 35.52 81.0199 33.04C82.6899 30.07 85.3599 26.93 86.6499 26.67C88.3499 26.29 89.9099 28.29 92.3499 30.59C94.4499 32.6 98.9799 31.22 96.2899 27.98C92.5099 23.5 88.66 20.35 86.4399 20.62C84.6599 20.86 82.7399 21.72 80.5199 24C77.6599 26.88 76.59 28.47 75.98 28.62C74.63 29.04 75.3799 21.11 76.9499 13.94C78.0399 8.95002 72.52 7.90002 71.4 13.33C69.25 23.55 70.4699 31.84 69.5999 31.93C68.9699 31.98 67.0699 26.07 66.8099 17.08C66.6799 13.03 61.0199 12.88 61.5499 18.49C62.2299 25.93 64.4099 34.11 63.3599 34.58C62.6299 34.9 59.9799 27.48 58.6999 24.45C56.6999 19.73 52.6499 22.55 53.9699 25.82C59.2299 38.69 60.1099 39.29 61.1399 47.07C62.6099 58.07 81.0999 61.31 86.8199 51.04L86.8299 51.03Z" fill="#875128"/>
<path d="M91.21 45.7499L87.2 21.3799C87.2 21.3799 94.59 11.0899 112.31 8.1699C130.04 5.2499 140.33 12.6399 140.33 12.6399L170.53 7.6699C171.77 7.4699 172.89 8.3099 173.09 9.5099L176.73 31.6299C176.93 32.8699 176.09 33.9899 174.89 34.1899L119.04 43.3799C118.47 43.4699 117.93 43.8099 117.57 44.3099L114.94 47.9799C114.58 48.4799 114.09 48.8099 113.47 48.9099L106.45 50.0699C105.88 50.1599 105.26 50.0199 104.76 49.6599L101.09 47.0299C100.59 46.6699 100.02 46.5199 99.4 46.6199L93.67 47.5599C92.59 47.8399 91.42 46.9999 91.21 45.7599V45.7499Z" fill="#FDBE10"/>
<path d="M86.6399 26.6198C88.3399 26.2398 89.8999 28.2398 92.3399 30.5398C94.4399 32.5498 98.9699 31.1698 96.2799 27.9298C92.4999 23.4498 88.6499 20.2998 86.4299 20.5698" fill="#875128"/>
<g opacity="0.1">
<path d="M80.6001 35.2698C80.4501 33.1398 81.8201 28.9798 83.9701 27.1098C86.1201 25.2398 87.7401 24.0898 90.8801 27.3498C94.8301 31.3598 97.0501 29.6698 97.0501 29.6698C97.0501 29.6698 97.3701 30.9898 95.3701 31.4198C91.1101 32.3698 88.8601 25.2298 86.1701 26.7998C82.6401 28.8998 80.6001 35.2698 80.6001 35.2698Z" fill="black"/>
</g>
<g opacity="0.1">
<path d="M54.71 22.2598C55.82 22.1298 56.57 22.8398 57.47 24.6998C58.27 26.2898 60.78 34.9498 63.31 34.5398C63.31 34.5398 62.9 35.0498 61.15 30.6698C59.4 26.2998 58.63 23.6798 57.58 22.7198C56.54 21.7598 55.64 21.6698 54.71 22.2598Z" fill="black"/>
</g>
<g opacity="0.1">
<path d="M63.73 14.0999C64.97 13.8999 64.76 19.1799 65.51 23.1299C66.26 27.0799 67.74 31.9399 69.54 31.8399C69.54 31.8399 68.2 29.9499 67.35 24.1999C66.5 18.4499 67.46 15.8899 65.88 14.6799C64.7 13.7499 63.72 14.0999 63.72 14.0999H63.73Z" fill="black"/>
</g>
<g opacity="0.1">
<path d="M72.54 10.6899C74 9.70989 76.03 10.7099 75.14 14.2899C74.26 17.8699 73.22 27.0699 75.67 28.5299C75.67 28.5299 75 25.9399 75.73 20.5199C76.54 14.3999 77.56 12.5599 76.78 11.1199C76.06 9.71989 74.47 8.69989 72.54 10.6899Z" fill="black"/>
</g>
<path d="M151.14 20.5601C151.48 20.6001 151.81 20.6301 152.13 20.6801" stroke="#FFE2B2" stroke-width="2" stroke-miterlimit="10" stroke-linecap="round"/>
<path d="M155.91 21.3398C175.02 25.6798 177.55 42.3298 177.78 49.1198" stroke="#FFE2B2" stroke-width="2" stroke-miterlimit="10" stroke-linecap="round"/>
<path d="M177.78 51.02C177.76 51.66 177.73 52.01 177.73 52.01" stroke="#FFE2B2" stroke-width="2" stroke-miterlimit="10" stroke-linecap="round"/>
<path d="M151.53 20.62C152.65 19.66 153.31 17.64 153.46 16.21C151.88 18.02 149.9 19.55 147.58 20.32C149.76 21.39 151.4 23.3 152.76 25.28C152.76 23.74 152.52 21.85 151.53 20.63V20.62Z" fill="#FFE2B2"/>
<path d="M280.06 15.1699C279.82 15.4099 279.59 15.6399 279.36 15.8799" stroke="#FDE5EA" stroke-width="2" stroke-miterlimit="10" stroke-linecap="round"/>
<path d="M276.83 18.76C264.64 34.11 273.09 48.68 277.17 54.11" stroke="#FDE5EA" stroke-width="2" stroke-miterlimit="10" stroke-linecap="round"/>
<path d="M278.36 55.6101C278.77 56.1001 279.02 56.3501 279.02 56.3501" stroke="#FDE5EA" stroke-width="2" stroke-miterlimit="10" stroke-linecap="round"/>
<path d="M279.8 15.47C279.75 16.95 280.8 18.8 281.75 19.87C281.48 17.49 281.69 14.99 282.69 12.76C280.43 13.64 277.91 13.56 275.53 13.24C276.67 14.28 278.22 15.38 279.79 15.47H279.8Z" fill="#FDE5EA"/>
</g>
<defs>
<clipPath id="clip0_1997_8733">
<rect width="438.83" height="105.89" fill="white" transform="translate(1)"/>
</clipPath>
</defs>
</svg>
