<svg width="440" height="106" viewBox="0 0 440 106" fill="none" xmlns="http://www.w3.org/2000/svg">
<g clip-path="url(#clip0_1997_8607)">
<path d="M439.83 0H1V105.89H439.83V0Z" fill="white"/>
<path d="M21.8401 48.9701C21.8401 48.9701 100.47 86.9501 124.36 82.8501C173.78 74.3601 159.21 53.2301 212.98 46.3601C253.81 41.1501 266.84 88.0601 298.99 88.0601C331.14 88.0601 389.34 45.4901 398.03 26.3801" stroke="#CEDFF2" stroke-width="4.51" stroke-miterlimit="10" stroke-linecap="round"/>
<path fill-rule="evenodd" clip-rule="evenodd" d="M59.8602 73.2104C78.1402 70.8704 95.4002 76.7105 95.3802 87.4105C95.3802 92.0905 87.1202 93.3604 75.2502 95.6104C60.9902 98.3204 43.8002 93.9405 38.6502 87.3705C30.4802 76.9405 41.9802 75.4904 59.8602 73.2004V73.2104Z" fill="#575E75"/>
<path fill-rule="evenodd" clip-rule="evenodd" d="M89.4401 77.7C89.4401 77.7 75.7001 84.21 64.8601 80.4C54.0201 76.59 49.3401 74.66 49.3401 74.66C49.3401 74.66 64.0501 72.7 70.1101 72.7C82.2201 72.7 89.4401 77.71 89.4401 77.71V77.7Z" fill="#221F1F" fill-opacity="0.1"/>
<path fill-rule="evenodd" clip-rule="evenodd" d="M77.6602 62.7102C92.8702 64.0102 93.8102 69.5702 86.4602 74.6602C79.4102 79.5402 51.9702 76.8202 43.4902 69.9102C35.0102 63.0002 62.7802 61.4302 77.6602 62.7102Z" fill="#666F86"/>
<path fill-rule="evenodd" clip-rule="evenodd" d="M80.5301 63.1001C80.5301 63.1001 78.4601 70.3501 68.5401 69.6801C58.6201 69.0101 50.8201 63.6801 50.8201 63.6801C50.8201 63.6801 60.7801 62.2501 68.8101 62.3001C76.8401 62.3501 80.5301 63.0901 80.5301 63.0901V63.1001Z" fill="#221F1F" fill-opacity="0.1"/>
<path fill-rule="evenodd" clip-rule="evenodd" d="M94.1301 82.9097C94.9301 84.7897 91.3101 87.9997 89.7101 87.3597C88.1101 86.7197 85.3401 92.6597 79.0901 92.5397C72.8401 92.4197 61.2301 96.2697 55.1501 93.4097C49.0701 90.5597 36.7301 85.8597 36.2101 82.9097C36.2101 82.9097 38.3601 95.6397 65.3301 96.4197C72.6001 96.6297 77.3801 95.0997 81.8201 94.3797C93.8401 92.4297 97.6301 89.9897 94.1301 82.9097Z" fill="#221F1F" fill-opacity="0.1"/>
<path fill-rule="evenodd" clip-rule="evenodd" d="M66.4701 46.09C81.3901 47.39 85.8401 59.95 78.6301 65.03C71.7201 69.9 59.3101 69.39 51.0001 62.5C42.6801 55.62 51.8801 44.82 66.4701 46.09Z" fill="#B2BEA5"/>
<path fill-rule="evenodd" clip-rule="evenodd" d="M78.1102 50.1001C75.8102 53.7501 54.5402 51.3101 53.9702 48.2101C53.9702 48.2101 60.5202 45.2001 67.0102 46.1901C73.5002 47.1901 77.3302 48.9801 79.0402 51.0201" fill="#221F1F" fill-opacity="0.1"/>
<path fill-rule="evenodd" clip-rule="evenodd" d="M66.5901 37.6C77.5101 41.18 88.1101 37.3 84.1201 45.14C81.1301 51.03 55.8601 49.84 47.4701 43.41C39.0801 36.98 52.5201 32.99 66.5801 37.61L66.5901 37.6Z" fill="#666F86"/>
<path fill-rule="evenodd" clip-rule="evenodd" d="M76.0703 39.5103C74.6803 40.7203 65.4103 42.3604 61.9903 41.0704C58.5703 39.7804 54.4403 38.3604 53.7903 35.6104C53.7903 35.6104 61.8103 35.8504 64.9303 37.3304C68.0503 38.8104 76.0703 39.5103 76.0703 39.5103Z" fill="#221F1F" fill-opacity="0.1"/>
<path fill-rule="evenodd" clip-rule="evenodd" d="M66.3301 26.7705C75.7201 27.5805 82.0801 34.4405 77.5501 37.5905C73.2001 40.6205 62.6401 41.3205 57.4101 37.0405C52.1801 32.7505 57.1501 25.9805 66.3301 26.7705Z" fill="#CFE1D5"/>
<path fill-rule="evenodd" clip-rule="evenodd" d="M87.9602 65.28C89.0402 66.02 84.8802 75.29 79.4302 75.53C73.9902 75.77 63.3502 72.53 60.7502 73.67C58.1502 74.81 50.1002 72.53 49.5402 70.55C48.9802 68.57 43.2802 66.2 43.4102 66.02C44.5902 64.32 42.6702 66.76 42.6702 66.76C42.6702 66.76 38.2102 69.59 56.0402 75.53C74.9402 80.36 87.2302 76.05 90.2002 71.21C92.4302 66.76 87.9702 65.28 87.9702 65.28H87.9602Z" fill="#221F1F" fill-opacity="0.1"/>
<path fill-rule="evenodd" clip-rule="evenodd" d="M80.3102 53.3C81.9902 55.35 79.0902 64.0601 65.8902 62.7301C52.7002 61.4001 48.5402 53.7201 49.9902 51.4501C49.9902 51.4501 47.0602 54.7001 48.0702 58.3301C49.0802 61.9501 56.4202 68.06 65.8402 68.24C75.2602 68.43 81.5802 64.6601 81.9902 59.3401C82.2602 55.9001 80.3102 53.3101 80.3102 53.3101V53.3Z" fill="#221F1F" fill-opacity="0.1"/>
<path fill-rule="evenodd" clip-rule="evenodd" d="M77.0701 56.38C77.8801 56.43 77.6401 58.01 76.6201 57.85C75.5901 57.69 76.1801 56.33 77.0701 56.38Z" fill="#221F1F" fill-opacity="0.1"/>
<path fill-rule="evenodd" clip-rule="evenodd" d="M74.4901 53.8801C74.9501 54.6401 73.7401 55.4301 73.2301 54.4101C72.7101 53.3901 73.9801 53.0401 74.4901 53.8801Z" fill="#221F1F" fill-opacity="0.1"/>
<path fill-rule="evenodd" clip-rule="evenodd" d="M61.1202 55.3604C61.5802 56.1204 60.3702 56.9104 59.8602 55.8904C59.3402 54.8704 60.6102 54.5204 61.1202 55.3604Z" fill="#221F1F" fill-opacity="0.1"/>
<path fill-rule="evenodd" clip-rule="evenodd" d="M76.7803 53.4897C77.5803 53.8897 77.8203 54.8897 77.2303 54.8897C76.6403 54.8897 76.0003 55.0397 76.0803 54.1897C76.1603 53.3397 76.4703 53.3397 76.7803 53.4897Z" fill="#221F1F" fill-opacity="0.1"/>
<path fill-rule="evenodd" clip-rule="evenodd" d="M66.6802 34.1205C67.4902 34.1705 67.2502 35.7505 66.2302 35.5905C65.2002 35.4305 65.7902 34.0705 66.6802 34.1205Z" fill="white"/>
<path fill-rule="evenodd" clip-rule="evenodd" d="M59.2503 29.67C60.0603 29.72 59.8203 31.3 58.8003 31.14C57.7703 30.98 58.3503 29.62 59.2503 29.67Z" fill="white"/>
<path fill-rule="evenodd" clip-rule="evenodd" d="M71.5201 31.6201C71.9801 32.3801 70.7701 33.1701 70.2601 32.1501C69.7401 31.1301 71.0101 30.7801 71.5201 31.6201Z" fill="white"/>
<path fill-rule="evenodd" clip-rule="evenodd" d="M59.0401 55.0001C59.8001 55.7301 59.9301 56.8601 59.4701 57.5201C58.9701 58.2301 58.8501 57.8301 58.3701 56.2601C57.9701 54.9501 58.7501 54.7201 59.0401 55.0001Z" fill="#221F1F" fill-opacity="0.1"/>
<path fill-rule="evenodd" clip-rule="evenodd" d="M84.9203 41.3904C84.5703 42.3004 83.9703 42.2204 82.8903 42.7704C81.8103 43.3204 82.3603 46.0004 81.0003 46.0804C79.6403 46.1604 69.5403 47.8104 67.9903 46.4304C66.4403 45.0504 62.5003 44.3404 60.7303 44.6604C58.9603 44.9704 52.3303 44.1604 51.4003 41.9904C50.4803 39.8204 44.0303 39.7104 45.3203 37.8904C45.3203 37.8904 43.2903 40.3504 48.0603 43.5904C52.8403 46.8304 62.6803 49.2004 69.7903 48.9404C76.9003 48.6804 81.8003 48.0804 83.6103 45.7604C85.4203 43.4404 84.9203 41.3904 84.9203 41.3904Z" fill="#221F1F" fill-opacity="0.1"/>
<path fill-rule="evenodd" clip-rule="evenodd" d="M78.4602 33.0004C79.2102 34.4104 78.2802 36.6304 75.5902 37.6104C72.9002 38.5904 66.4702 36.7104 64.2002 37.1604C61.9302 37.6104 55.1902 32.6604 56.0002 31.1504C56.0002 31.1504 52.4802 36.8004 63.1702 39.4704C70.8602 41.3904 78.2502 38.0504 78.8602 36.2504C79.4402 34.5504 78.4502 32.9904 78.4502 32.9904L78.4602 33.0004Z" fill="#221F1F" fill-opacity="0.1"/>
<path fill-rule="evenodd" clip-rule="evenodd" d="M73.6903 29.2101C73.6903 29.2101 70.5003 31.5801 65.3503 31.0901C60.2003 30.6001 58.2603 28.0001 58.2603 28.0001C58.2603 28.0001 60.7903 26.3801 65.6803 26.7601C70.5703 27.1501 74.6003 29.7201 74.6003 29.7201" fill="#221F1F" fill-opacity="0.1"/>
<path fill-rule="evenodd" clip-rule="evenodd" d="M62.7501 21.0001C69.3601 20.2701 76.6201 21.0001 76.0401 26.4901C75.6001 30.6601 62.4701 30.7301 57.6001 26.6601C52.7401 22.5901 56.0101 21.7401 62.7501 21.0001Z" fill="#666F86"/>
<path fill-rule="evenodd" clip-rule="evenodd" d="M71.6202 21.5398C71.6202 21.5398 67.7702 24.1298 64.2002 23.6798C60.6302 23.2298 59.7402 21.5398 59.7402 21.5398C59.7402 21.5398 63.7602 20.7598 66.3902 20.7598C69.0102 20.7598 71.6202 21.5398 71.6202 21.5398Z" fill="#221F1F" fill-opacity="0.1"/>
<path fill-rule="evenodd" clip-rule="evenodd" d="M64.3203 16.3998C69.1303 15.8898 76.8103 17.8798 73.9703 20.2598C72.7503 21.2898 66.2903 23.1798 62.1003 21.7098C58.0703 20.2898 59.4203 16.9198 64.3203 16.3998Z" fill="#CFE1D5"/>
<path fill-rule="evenodd" clip-rule="evenodd" d="M75.8602 24.4204C76.0302 25.9804 74.7402 27.2004 73.3002 27.1704C71.8602 27.1404 70.1702 26.5404 69.5202 27.1704C68.8702 27.8004 68.7602 28.6404 67.2602 28.3004C65.7602 27.9604 63.1802 26.0404 60.8402 26.1404C58.5002 26.2304 55.4802 23.1504 55.6402 22.5304C55.6402 22.5304 55.1302 23.0504 55.3202 23.6004C55.5102 24.1504 56.8302 27.8504 64.0502 29.2204C71.2702 30.5904 74.9402 28.5204 75.6202 27.3804C76.3002 26.2404 76.0902 25.0104 75.8702 24.4304L75.8602 24.4204Z" fill="#221F1F" fill-opacity="0.1"/>
<path fill-rule="evenodd" clip-rule="evenodd" d="M70.1302 16.9104C70.1302 16.9104 68.7102 18.0704 66.7102 17.7404C64.7202 17.4104 62.7002 16.4704 62.7002 16.4704C62.7002 16.4704 64.7002 16.2104 66.7102 16.3704C68.7202 16.5304 70.1302 16.9204 70.1302 16.9204V16.9104Z" fill="#221F1F" fill-opacity="0.1"/>
<path fill-rule="evenodd" clip-rule="evenodd" d="M74.5703 19.6099C73.5403 20.2899 71.9303 21.3199 69.5103 21.4699C67.0903 21.6299 64.1503 21.4299 62.6403 21.0199C60.7103 20.4999 60.3403 19.0599 59.9003 19.2999C58.9603 20.8499 62.1703 22.5399 66.7503 22.1899C72.5703 21.7499 74.8403 20.5899 74.5603 19.5999L74.5703 19.6099Z" fill="#221F1F" fill-opacity="0.1"/>
<path fill-rule="evenodd" clip-rule="evenodd" d="M65.3802 13.5701C70.0302 12.9701 73.3702 13.5101 70.6302 16.3201C69.4502 17.5301 67.7402 18.6401 63.6902 16.9001C59.7902 15.2301 60.6503 14.1801 65.3903 13.5701H65.3802Z" fill="#B2BEA5"/>
<path fill-rule="evenodd" clip-rule="evenodd" d="M71.5901 14.8301C70.6301 15.7801 68.9801 17.3801 66.9601 16.9201C64.9401 16.4601 61.9101 16.1701 61.4301 15.7501C61.4301 15.7501 63.9501 17.8001 67.2501 17.8001C70.2101 17.8001 71.8401 15.3601 71.5901 14.8301Z" fill="#221F1F" fill-opacity="0.1"/>
<path d="M349.65 98.6799L308.46 70.9699C308.46 70.9699 308.4 70.9099 308.39 70.8699C308.39 70.8299 308.39 70.7899 308.41 70.7499C308.43 70.7099 308.47 70.6899 308.51 70.6699C308.55 70.6599 308.59 70.6699 308.63 70.6799L339.79 83.7799L349.65 98.6799Z" fill="#AE5AA2"/>
<path d="M349.77 98.54L391.25 80.91C391.25 80.91 391.33 80.87 391.36 80.83C391.39 80.8 391.41 80.75 391.42 80.71C391.43 80.67 391.43 80.62 391.42 80.57C391.42 80.53 391.39 80.48 391.36 80.45L351.84 14.01C351.84 14.01 351.75 13.93 351.69 13.91C351.63 13.89 351.57 13.9 351.51 13.91C351.45 13.93 351.4 13.97 351.37 14.02C351.34 14.07 351.32 14.13 351.32 14.19L349.36 98.26C349.36 98.26 349.38 98.35 349.4 98.4C349.42 98.44 349.46 98.48 349.5 98.5C349.54 98.53 349.59 98.54 349.63 98.55C349.68 98.55 349.73 98.55 349.77 98.53V98.54Z" fill="#A7509D"/>
<path d="M349.65 98.6802L391.65 80.9602L299.21 37.4302C299.15 37.4002 299.09 37.3902 299.02 37.4002C298.96 37.4102 298.9 37.4402 298.85 37.4902C298.81 37.5402 298.78 37.6002 298.77 37.6602C298.76 37.7202 298.78 37.7902 298.82 37.8402L349.63 98.6802H349.65Z" fill="#B66AAA"/>
<path d="M379.36 75.1701L378.86 17.8801L383.47 17.0901L391.64 80.9601L379.36 75.1701Z" fill="#AE5AA2"/>
<path d="M383.48 17.0899L392.18 16.3699L384.33 23.7299L383.48 17.0799V17.0899Z" fill="#B66AAA"/>
<path d="M363.17 88.3403L309.65 46.3203" stroke="#AE5AA2" stroke-width="1.14" stroke-miterlimit="10" stroke-linecap="round"/>
<path fill-rule="evenodd" clip-rule="evenodd" d="M154.02 15.7201C159.18 14.0801 164.71 16.9401 166.35 22.1101C167.99 27.2801 165.11 32.7801 159.94 34.4101C154.77 36.0401 149.27 33.1901 147.63 28.0301C145.99 22.8601 148.85 17.3501 154.02 15.7201ZM154.66 17.7401C158.71 16.4601 163.04 18.7001 164.32 22.7401C165.6 26.7901 163.36 31.1101 159.3 32.3901C155.24 33.6701 150.92 31.4301 149.64 27.3901C148.36 23.3401 150.6 19.0201 154.66 17.7401Z" fill="#CE8B2A"/>
<path d="M160.641 30.2467L156.97 31.4089L159.132 38.2349L162.802 37.0727L160.641 30.2467Z" fill="#CE8B2A"/>
<path fill-rule="evenodd" clip-rule="evenodd" d="M136.14 41.7496L141.23 36.1696C141.57 35.7996 142.16 35.7796 142.53 36.1196C142.91 36.4496 142.94 37.0496 142.6 37.4196L137.5 42.9996C137.16 43.3696 136.57 43.3896 136.2 43.0496C135.83 42.7096 135.79 42.1196 136.15 41.7496H136.14Z" fill="#FAA91E"/>
<path fill-rule="evenodd" clip-rule="evenodd" d="M137.92 42.5204L142.17 37.8904L145.02 40.4804C145.27 40.7104 145.29 41.1104 145.06 41.3804L141.66 45.0704C141.44 45.3404 141.03 45.3504 140.78 45.1104L137.93 42.5204H137.92Z" fill="#EB9C22"/>
<path fill-rule="evenodd" clip-rule="evenodd" d="M142.29 44.4103L144.43 42.0603L147.8 45.1503L145.66 47.4803L142.29 44.4103Z" fill="#CE8B2A"/>
<path fill-rule="evenodd" clip-rule="evenodd" d="M183.63 26.7096L176.26 25.0796C175.77 24.9696 175.27 25.2996 175.16 25.7796C175.05 26.2696 175.36 26.7696 175.86 26.8696L183.23 28.4996C183.72 28.6096 184.22 28.2796 184.33 27.7996C184.45 27.3096 184.13 26.8096 183.63 26.7096Z" fill="#FAA91E"/>
<path fill-rule="evenodd" clip-rule="evenodd" d="M182.62 28.37L176.48 27.03L175.65 30.79C175.56 31.13 175.78 31.46 176.13 31.55L181.03 32.62C181.37 32.71 181.7 32.49 181.79 32.14L182.62 28.38V28.37Z" fill="#EB9C22"/>
<path fill-rule="evenodd" clip-rule="evenodd" d="M180.13 32.42L177.03 31.73L176.05 36.2L179.15 36.88L180.13 32.42Z" fill="#CE8B2A"/>
<path fill-rule="evenodd" clip-rule="evenodd" d="M160.12 34.9704C175.98 29.9504 192.9 38.7104 197.91 54.5504C202.92 70.3704 194.13 87.2804 178.27 92.3004C162.41 97.3204 145.49 88.5604 140.48 72.7304C135.46 56.8904 144.25 39.9804 160.11 34.9604L160.12 34.9704Z" fill="#EB9C22"/>
<path fill-rule="evenodd" clip-rule="evenodd" d="M160.12 34.9704C175.98 29.9504 192.9 38.7104 197.91 54.5504C199.32 59.0004 199.63 63.5304 199.01 67.8504C195.37 71.7804 190.7 74.8604 185.24 76.5804C168.48 81.8904 150.59 72.6204 145.28 55.8804C144.4 53.0904 143.92 50.2504 143.82 47.4504C147.49 41.7104 153.12 37.1804 160.11 34.9604L160.12 34.9704Z" fill="#FAA91E"/>
<path fill-rule="evenodd" clip-rule="evenodd" d="M161.53 39.43C174.92 35.19 189.19 42.6 193.43 55.97C197.66 69.32 190.25 83.6 176.86 87.84C163.47 92.08 149.2 84.67 144.97 71.32C140.74 57.95 148.14 43.67 161.53 39.43Z" fill="#FCBD4D"/>
<path fill-rule="evenodd" clip-rule="evenodd" d="M161.53 39.43C174.92 35.19 189.19 42.6 193.43 55.97C195.27 61.79 194.9 67.79 192.79 73.06C190.49 74.54 187.97 75.72 185.25 76.59C168.49 81.9 150.6 72.63 145.29 55.89C145.24 55.74 145.2 55.59 145.16 55.43C147.68 48.08 153.54 41.97 161.53 39.44V39.43Z" fill="#FFD998"/>
<path fill-rule="evenodd" clip-rule="evenodd" d="M162.14 41.3496C174.46 37.4496 187.61 44.2696 191.51 56.5796C195.4 68.8696 188.58 82.0196 176.26 85.9196C163.94 89.8196 150.79 82.9996 146.9 70.7096C143 58.3996 149.83 45.2596 162.15 41.3496H162.14Z" fill="#FFE2B2"/>
<path fill-rule="evenodd" clip-rule="evenodd" d="M162.14 41.3496C174.46 37.4496 187.61 44.2696 191.51 56.5796C193.5 62.8696 192.69 69.3896 189.77 74.7696C188.34 75.4796 186.82 76.0896 185.25 76.5896C169.45 81.5896 152.65 73.6496 146.33 58.6996C148.05 50.7796 153.86 43.9796 162.14 41.3496Z" fill="#FFF3CC"/>
<path d="M152.69 49.0299L155.85 51.93L156.62 51.0999L153.45 48.2L152.69 49.0299Z" fill="#C37929"/>
<path d="M147.76 59.1203L151.96 60.0503L152.22 58.9503L148.02 58.0203L147.76 59.1203Z" fill="#C37929"/>
<path d="M163.85 84.2601L164.95 84.5001L165.87 80.3101L164.77 80.0701L163.85 84.2601Z" fill="#C37929"/>
<path d="M152.315 67.941L148.215 69.239L148.556 70.3163L152.656 69.0183L152.315 67.941Z" fill="#C37929"/>
<path d="M154.01 78.8397L154.85 79.5997L157.75 76.4197L156.91 75.6697L154.01 78.8397Z" fill="#C37929"/>
<path d="M184.13 47.6103L183.28 46.8503L180.38 50.0303L181.23 50.7803L184.13 47.6103Z" fill="#C37929"/>
<path d="M185.92 67.4999L190.12 68.4299L190.37 67.3299L186.17 66.3999L185.92 67.4999Z" fill="#C37929"/>
<path d="M172.27 46.1399L173.37 46.38L174.3 42.18L173.19 41.95L172.27 46.1399Z" fill="#C37929"/>
<path d="M189.584 56.1441L185.485 57.4421L185.826 58.5194L189.925 57.2214L189.584 56.1441Z" fill="#C37929"/>
<path d="M163.081 42.4184L162.004 42.7595L163.299 46.8494L164.376 46.5083L163.081 42.4184Z" fill="#C37929"/>
<path d="M181.52 75.3503L184.68 78.2503L185.46 77.4203L182.28 74.5203L181.52 75.3503Z" fill="#C37929"/>
<path d="M174.851 79.6176L173.774 79.9587L175.069 84.0486L176.146 83.7075L174.851 79.6176Z" fill="#C37929"/>
<path d="M184.13 47.6103L183.28 46.8503L180.38 50.0303L181.23 50.7803L184.13 47.6103Z" fill="#CE8B2A"/>
<path d="M152.69 49.0299L155.85 51.93L156.62 51.0999L153.45 48.2L152.69 49.0299Z" fill="#CE8B2A"/>
<path d="M163.081 42.4184L162.004 42.7595L163.299 46.8494L164.376 46.5083L163.081 42.4184Z" fill="#CE8B2A"/>
<path d="M147.76 59.1203L151.96 60.0503L152.22 58.9503L148.02 58.0203L147.76 59.1203Z" fill="#CE8B2A"/>
<path d="M172.27 46.1399L173.37 46.38L174.3 42.18L173.19 41.95L172.27 46.1399Z" fill="#CE8B2A"/>
<path d="M189.584 56.1441L185.485 57.4421L185.826 58.5194L189.925 57.2214L189.584 56.1441Z" fill="#CE8B2A"/>
<path d="M181.52 75.35L183.44 77.1C183.86 77 184.3 76.88 184.73 76.76L182.28 74.53L181.52 75.36V75.35Z" fill="#CE8B2A"/>
<path d="M185.92 67.4999L190.12 68.4299L190.37 67.3299L186.17 66.3999L185.92 67.4999Z" fill="#CE8B2A"/>
<path fill-rule="evenodd" clip-rule="evenodd" d="M156.29 31.6203L161.32 30.0303C161.45 29.9903 161.53 29.8303 161.49 29.7003L161.21 28.8103L155.69 30.5603L155.97 31.4503C156.01 31.5803 156.15 31.6703 156.29 31.6303V31.6203Z" fill="#FAA91E"/>
<path fill-rule="evenodd" clip-rule="evenodd" d="M154.73 30.86L162.17 28.5C162.51 28.39 162.69 28.03 162.58 27.69L161.16 23.2C161.05 22.86 160.7 22.66 160.36 22.77L152.92 25.13C152.58 25.24 152.39 25.61 152.5 25.95L153.92 30.44C154.03 30.78 154.4 30.97 154.74 30.86H154.73Z" fill="#EB9C22"/>
<path d="M154.71 25.4373L153.9 25.6938L155.219 29.86L156.029 29.6034L154.71 25.4373Z" fill="#FFD998"/>
<path d="M159.848 23.8013L159.038 24.0579L160.357 28.224L161.168 27.9674L159.848 23.8013Z" fill="#FFD998"/>
<path d="M157.293 24.6063L156.463 24.8689L157.782 29.035L158.612 28.7724L157.293 24.6063Z" fill="#FFD998"/>
<path fill-rule="evenodd" clip-rule="evenodd" d="M177.39 44.9001L178.21 45.2701L166.24 72.7901L164.12 71.8201L177.39 44.9001Z" fill="#CE8B2A"/>
<path fill-rule="evenodd" clip-rule="evenodd" d="M168.09 60.1497C170.03 59.5397 172.09 60.6097 172.7 62.5397C173.31 64.4597 172.24 66.5197 170.3 67.1397C168.38 67.7497 166.31 66.6797 165.7 64.7597C165.09 62.8197 166.16 60.7597 168.08 60.1497H168.09Z" fill="#EB9C22"/>
<path fill-rule="evenodd" clip-rule="evenodd" d="M168.69 62.0405C169.58 61.7605 170.52 62.2605 170.8 63.1405C171.08 64.0205 170.6 64.9605 169.71 65.2405C168.82 65.5205 167.88 65.0205 167.61 64.1505C167.34 63.2805 167.81 62.3105 168.7 62.0305L168.69 62.0405Z" fill="#CE8B2A"/>
<path fill-rule="evenodd" clip-rule="evenodd" d="M277.18 9.24007C268.03 13.0601 271.12 23.7601 269.89 23.7601C265.36 23.7601 261.61 27.8201 260.62 30.3401C259.52 33.1501 259.53 36.0901 260.36 38.3901C262.18 43.4401 246.56 40.8101 245.02 44.5601C245.02 48.3101 252.67 50.2101 265.81 47.6001C278.95 44.9901 311.39 61.9701 312.21 43.5201C313.03 25.0701 292.04 37.0701 292.04 32.5101C292.04 27.9501 299.53 28.7401 305.88 19.1201C312.23 9.49007 286.33 5.41007 277.18 9.23007V9.24007Z" fill="#628EC9" fill-opacity="0.15"/>
<path fill-rule="evenodd" clip-rule="evenodd" d="M310.32 13.8796C310.32 13.8796 313.3 10.9996 307.92 13.8796C306.87 14.4396 303.46 20.8196 299.7 20.1496C292.61 18.8696 290.6 26.7796 285.59 26.7796C284.02 26.7796 275.35 25.4896 277.43 27.3096C278.25 28.0296 280.18 27.1496 282.76 30.5996C285.17 33.8296 289.97 35.8596 294.25 33.4596C296.24 32.3396 302.56 34.3296 306.26 35.4396C312.97 37.4396 307.93 33.4596 307.93 33.4596L298.03 31.9596L309.67 21.0596L310.33 13.8796H310.32Z" fill="#628EC9" fill-opacity="0.15"/>
<path fill-rule="evenodd" clip-rule="evenodd" d="M260.8 29.46C260.8 29.46 259.67 37.73 263.58 39.49C267.49 41.25 265.56 41.63 263.15 41.26C260.74 40.89 258.29 41.01 257.52 41.26C256.75 41.51 249.58 40.39 249.58 40.39C249.58 40.39 251.13 41.82 253.56 41.26C255.98 40.69 260.81 29.46 260.81 29.46H260.8Z" fill="#628EC9" fill-opacity="0.15"/>
<path fill-rule="evenodd" clip-rule="evenodd" d="M264.54 25.5497C264.54 25.5497 269.57 23.2397 273.23 25.0297C274.29 25.5497 273.75 24.1597 272.6 23.6097C270.62 22.6597 270.21 20.1197 270.73 17.3197C271.23 14.6197 268.86 19.9997 267.76 20.2597C266.66 20.5197 264.55 25.5397 264.55 25.5397L264.54 25.5497Z" fill="#628EC9" fill-opacity="0.15"/>
<path fill-rule="evenodd" clip-rule="evenodd" d="M247.75 49.3797C242.29 49.3797 244.13 43.5497 244.16 43.6897C245.46 48.7097 263.12 45.0797 267.03 45.0797C270.94 45.0797 270.33 44.7797 284.6 46.8697C288.84 47.4897 292.75 47.0297 296.23 46.1497C304.88 43.9697 310.83 39.2297 312.29 42.2897C312.51 42.7497 315.73 52.5097 313.82 53.9797C309.89 56.9897 280.3 54.4097 272.82 51.3697C265.34 48.3297 253.21 49.3797 247.75 49.3797Z" fill="#628EC9" fill-opacity="0.5"/>
<path fill-rule="evenodd" clip-rule="evenodd" d="M415.58 52.81C414.95 53.36 410.24 52.81 408.39 56.03C406.34 59.61 409.97 61.64 407.12 63.94C406.15 64.72 405.8 64.98 400.98 64.57C396.7 64.21 390.58 67.4 392.2 69.09C393.82 70.78 403.44 70.8001 411.67 70.3001C416.88 69.9801 421.46 69.25 424.6 69.18C433.64 68.96 437.8 70.11 438.16 67.88C438.52 65.65 433.38 59.66 429.5 60.61C425.62 61.56 429.76 60.01 429.9 58.11C430.14 54.86 429.27 56.6 429.72 53.84C430.28 50.34 430.61 48.91 425.64 48.09C423.92 47.8 423.65 43.86 417.68 44.67C411.71 45.48 416.22 52.28 415.58 52.82V52.81Z" fill="#628EC9" fill-opacity="0.15"/>
<path fill-rule="evenodd" clip-rule="evenodd" d="M390.21 69.6204C390.21 69.6204 391.39 69.0304 396.08 68.6304C400.77 68.2404 402.82 69.7104 408.76 69.6304C414.69 69.5504 423.2 67.6704 428.35 66.0004C433.49 64.3304 436.8 66.5204 438.5 68.9004C440.2 71.2904 439.06 69.8904 434.8 71.7604C430.55 73.6304 425.88 71.2704 423.12 70.6404C420.36 70.0204 432.91 72.3804 410.18 72.1004C387.45 71.8304 390.21 69.6004 390.21 69.6004V69.6204Z" fill="#628EC9" fill-opacity="0.5"/>
<path fill-rule="evenodd" clip-rule="evenodd" d="M407.66 58.1309C407.66 58.1309 408.52 60.9709 409.53 61.3809C410.48 61.7709 411.48 61.9409 413.56 61.1609C414.77 60.7109 415.87 61.3309 413.88 62.4709C410.79 64.2309 408.16 65.0509 403.41 64.2909C399.73 63.7009 407.67 58.1409 407.67 58.1409L407.66 58.1309Z" fill="#628EC9" fill-opacity="0.15"/>
<path fill-rule="evenodd" clip-rule="evenodd" d="M433.23 51.4605C433.66 52.1405 430.74 44.8805 427.74 47.7205C427.23 48.2005 427.85 48.8005 427.96 50.6105C428.05 52.1705 425.53 56.5805 423.08 55.3305C421.84 54.7005 419.74 54.7505 420.14 55.5205C420.46 56.1305 421.61 56.3005 421.92 57.7205C422.15 58.7805 422.22 60.6905 419.66 62.8405C418.49 63.8305 426.2 61.3605 428.45 60.8005C431.99 59.9205 434 58.0505 435.94 56.7905C437.87 55.5305 434.42 52.2605 434.42 52.2605C434.42 52.2605 432.8 50.7705 433.23 51.4505V51.4605Z" fill="#628EC9" fill-opacity="0.15"/>
<path fill-rule="evenodd" clip-rule="evenodd" d="M414.72 49.54C414.72 49.54 416.08 52.56 417.96 53.22C419.84 53.88 418.08 54.3 417.19 53.77C416.3 53.24 415.37 53.14 414.81 53.39C414.25 53.64 412.94 53.27 411.95 53.53C410.95 53.79 414.73 49.55 414.73 49.55L414.72 49.54Z" fill="#628EC9" fill-opacity="0.15"/>
</g>
<defs>
<clipPath id="clip0_1997_8607">
<rect width="438.83" height="105.89" fill="white" transform="translate(1)"/>
</clipPath>
</defs>
</svg>
