<svg width="440" height="104" viewBox="0 0 440 104" fill="none" xmlns="http://www.w3.org/2000/svg">
<g clip-path="url(#clip0_2139_87591)">
<path fill-rule="evenodd" clip-rule="evenodd" d="M93.5678 36.88C94.0178 36.44 94.6178 36.2 95.2378 36.21L96.6178 36.23L134.308 36.67C135.608 36.68 136.648 37.75 136.638 39.05L136.368 62.61C136.358 63.91 135.288 64.95 133.988 64.94L96.2978 64.5L94.9178 64.48C94.2978 64.48 93.6878 64.71 93.2478 65.15L89.8778 68.44C89.4278 68.88 88.8278 69.12 88.2078 69.11L80.7378 69.02C80.1178 69.02 79.5178 68.76 79.0778 68.31L75.7878 64.94C75.3478 64.49 74.7578 64.24 74.1278 64.23L72.7478 64.21L68.0378 64.16C66.7378 64.15 65.6978 63.08 65.7078 61.78L65.9778 38.22C65.9978 36.92 67.0578 35.88 68.3578 35.89L73.0678 35.94L74.4478 35.96C75.0678 35.96 75.6678 36.22 76.1078 36.67L79.3978 40.04C79.8378 40.49 80.4278 40.74 81.0578 40.75L88.5278 40.84C89.1478 40.84 89.7578 40.61 90.1978 40.17L93.5678 36.88Z" fill="#EC9D22"/>
<path d="M121.151 39.4852L110.234 39.226C104.603 39.0923 99.929 43.5493 99.7953 49.1811L99.795 49.1911C99.6613 54.8228 104.118 59.4966 109.75 59.6303L120.667 59.8895C126.299 60.0232 130.973 55.5661 131.106 49.9344L131.106 49.9244C131.24 44.2927 126.783 39.6189 121.151 39.4852Z" fill="white"/>
<mask id="mask0_2139_87591" style="mask-type:luminance" maskUnits="userSpaceOnUse" x="186" y="13" width="97" height="18">
<path d="M282.023 13.4581L186.861 25.0919L187.5 30.313L282.661 18.6792L282.023 13.4581Z" fill="white"/>
</mask>
<g mask="url(#mask0_2139_87591)">
<path fill-rule="evenodd" clip-rule="evenodd" d="M189.178 24.81C187.898 24.97 186.988 26.13 187.138 27.41L187.568 30.89L202.078 29.12L216.588 27.35L282.738 19.26L282.308 15.78C282.148 14.5 280.988 13.59 279.708 13.74L215.888 21.54L215.688 21.56C215.068 21.64 214.508 21.95 214.128 22.44L211.248 26.12C210.868 26.61 210.308 26.93 209.688 27L202.328 27.9C201.708 27.98 201.088 27.8 200.608 27.42L196.928 24.54C196.438 24.16 195.818 23.99 195.208 24.06L189.208 24.79L189.178 24.81Z" fill="#FFAB19"/>
</g>
<path d="M187.498 30.32L282.658 18.69L284.468 33.51L189.308 45.14L187.498 30.32Z" fill="#FFAB19"/>
<mask id="mask1_2139_87591" style="mask-type:luminance" maskUnits="userSpaceOnUse" x="189" y="33" width="97" height="20">
<path d="M284.476 33.5093L189.314 45.1431L190.165 52.1013L285.326 40.4675L284.476 33.5093Z" fill="white"/>
</mask>
<g mask="url(#mask1_2139_87591)">
<path fill-rule="evenodd" clip-rule="evenodd" d="M190.238 52.68L189.248 44.56L227.538 39.88L284.398 32.93L284.468 33.51C284.628 34.79 283.708 35.96 282.428 36.11L227.888 42.78L227.688 42.8C227.068 42.88 226.508 43.19 226.128 43.68L223.248 47.36C222.868 47.85 222.308 48.17 221.688 48.24L214.328 49.14C213.708 49.22 213.088 49.04 212.608 48.66L208.928 45.78C208.438 45.4 207.818 45.23 207.208 45.3L201.788 45.96C200.508 46.12 199.598 47.28 199.748 48.56L200.098 51.46L190.238 52.67V52.68Z" fill="#FFAB19"/>
<path d="M189.238 44.56L189.168 43.98L188.588 44.05L188.658 44.63L189.238 44.56ZM284.398 32.93L284.978 32.86L284.908 32.28L284.328 32.35L284.398 32.93ZM283.828 33L283.898 33.58L285.058 33.44L284.988 32.86L283.828 33Z" fill="#CF8B17"/>
</g>
<mask id="mask2_2139_87591" style="mask-type:luminance" maskUnits="userSpaceOnUse" x="190" y="50" width="12" height="15">
<path d="M200.034 50.8951L190.167 52.1013L191.689 64.5486L201.556 63.3424L200.034 50.8951Z" fill="white"/>
</mask>
<g mask="url(#mask2_2139_87591)">
<path d="M200.295 50.5709L190.052 51.8232L191.645 64.8562L201.889 63.6039L200.295 50.5709Z" fill="#FFAB19"/>
</g>
<mask id="mask3_2139_87591" style="mask-type:luminance" maskUnits="userSpaceOnUse" x="191" y="62" width="15" height="5">
<path d="M204.747 62.9554L191.387 64.5887L191.671 66.9114L205.031 65.2781L204.747 62.9554Z" fill="white"/>
</mask>
<g mask="url(#mask3_2139_87591)">
<path d="M201.518 63.05L191.638 64.26L191.988 67.16L204.188 65.67V65.65C202.858 65.67 201.708 64.68 201.548 63.34L201.508 63.05H201.518Z" fill="#FFAB19"/>
</g>
<mask id="mask4_2139_87591" style="mask-type:luminance" maskUnits="userSpaceOnUse" x="191" y="55" width="97" height="18">
<path d="M287.134 55.2293L191.972 66.8631L192.611 72.0842L287.772 60.4504L287.134 55.2293Z" fill="white"/>
</mask>
<g mask="url(#mask4_2139_87591)">
<path fill-rule="evenodd" clip-rule="evenodd" d="M192.678 72.67L191.548 63.39L201.408 62.18L201.548 63.34C201.708 64.62 202.868 65.53 204.148 65.38L205.988 65.16L209.568 64.72C210.188 64.64 210.808 64.82 211.288 65.2L214.968 68.08C215.458 68.46 216.078 68.63 216.688 68.56L224.048 67.66C224.668 67.58 225.228 67.27 225.608 66.78L228.488 63.1C228.868 62.61 229.428 62.29 230.048 62.22L230.248 62.2L284.788 55.53C286.068 55.37 287.238 56.29 287.388 57.57L287.818 61.05L230.958 68L224.198 68.83L192.668 72.68L192.678 72.67Z" fill="#FFAB19"/>
</g>
<path d="M192.608 72.09L287.768 60.46L289.118 71.48L193.958 83.11L192.608 72.09Z" fill="#FFAB19"/>
<mask id="mask5_2139_87591" style="mask-type:luminance" maskUnits="userSpaceOnUse" x="193" y="71" width="97" height="20">
<path d="M289.119 71.4757L193.958 83.1095L194.808 90.0676L289.97 78.4339L289.119 71.4757Z" fill="white"/>
</mask>
<g mask="url(#mask5_2139_87591)">
<path d="M193.958 83.11L193.888 82.53L289.048 70.9L289.118 71.48C289.278 72.76 288.358 73.93 287.078 74.08L196.558 85.15C195.278 85.31 194.108 84.39 193.958 83.11Z" fill="#FFAB19"/>
</g>
<mask id="mask6_2139_87591" style="mask-type:luminance" maskUnits="userSpaceOnUse" x="55" y="6" width="94" height="8">
<path d="M55.7858 6.99862L55.7229 12.0782L148.316 13.2257L148.379 8.14607L55.7858 6.99862Z" fill="white"/>
</mask>
<g mask="url(#mask6_2139_87591)">
<path fill-rule="evenodd" clip-rule="evenodd" d="M58.048 7.03C56.798 7.01 55.778 8.01 55.758 9.26L55.718 12.65L69.838 12.82L83.958 12.99L148.328 13.79L148.368 10.4C148.388 9.15 147.388 8.13 146.138 8.11L84.018 7.35H83.828C83.228 7.35 82.648 7.57 82.218 7.99L78.988 11.14C78.558 11.56 77.978 11.79 77.378 11.78L70.218 11.69C69.618 11.69 69.048 11.44 68.628 11.01L65.478 7.78C65.058 7.35 64.488 7.11 63.888 7.1L58.048 7.03Z" fill="#FFAB19"/>
</g>
<path d="M55.7279 12.08L148.328 13.22L148.148 27.64L55.5479 26.51L55.7279 12.09V12.08Z" fill="#FFAB19"/>
<mask id="mask7_2139_87591" style="mask-type:luminance" maskUnits="userSpaceOnUse" x="55" y="26" width="94" height="9">
<path d="M55.5418 26.5008L55.4578 33.2803L148.051 34.4278L148.135 27.6483L55.5418 26.5008Z" fill="white"/>
</mask>
<g mask="url(#mask7_2139_87591)">
<path fill-rule="evenodd" clip-rule="evenodd" d="M55.458 33.85L55.558 25.95L92.818 26.41L148.148 27.09V27.65C148.128 28.9 147.098 29.9 145.858 29.88L92.788 29.22H92.598C91.998 29.22 91.418 29.44 90.988 29.86L87.758 33.01C87.328 33.43 86.748 33.66 86.148 33.65L78.988 33.56C78.388 33.56 77.818 33.31 77.398 32.88L74.248 29.65C73.828 29.22 73.258 28.98 72.658 28.97L67.378 28.9C66.128 28.88 65.108 29.88 65.088 31.13L65.058 33.95L55.458 33.83V33.85Z" fill="#FFAB19"/>
<path d="M55.558 25.94V25.38H54.998V25.94H55.558ZM148.158 27.08H148.718V26.52H148.158V27.08ZM147.598 27.07V27.63L148.718 27.64V27.08L147.598 27.07Z" fill="#CF8B17"/>
</g>
<mask id="mask8_2139_87591" style="mask-type:luminance" maskUnits="userSpaceOnUse" x="55" y="33" width="11" height="39">
<path d="M55.4579 33.28L65.0579 33.4L64.9079 71.31L55.3079 71.19L55.4579 33.28Z" fill="white"/>
</mask>
<g mask="url(#mask8_2139_87591)">
<path d="M55.3878 33L65.3578 33.12L65.1978 71.6L55.2378 71.48L55.3878 33Z" fill="#FFAB19"/>
</g>
<mask id="mask9_2139_87591" style="mask-type:luminance" maskUnits="userSpaceOnUse" x="55" y="71" width="14" height="3">
<path d="M55.028 71.1904L55 73.4503L67.999 73.6114L68.027 71.3515L55.028 71.1904Z" fill="white"/>
</mask>
<g mask="url(#mask9_2139_87591)">
<path d="M64.9178 71.03L55.3078 70.91L55.2778 73.73L67.1478 73.88V73.86C65.8778 73.7 64.9078 72.61 64.9178 71.31V71.03Z" fill="#FFAB19"/>
</g>
<mask id="mask10_2139_87591" style="mask-type:luminance" maskUnits="userSpaceOnUse" x="55" y="73" width="93" height="7">
<path d="M55.2844 73.452L55.2214 78.5316L147.814 79.6791L147.877 74.5994L55.2844 73.452Z" fill="white"/>
</mask>
<g mask="url(#mask10_2139_87591)">
<path fill-rule="evenodd" clip-rule="evenodd" d="M55.2178 79.1L55.3278 70.07L64.9278 70.19V71.32C64.8978 72.57 65.8978 73.59 67.1478 73.61L68.9378 73.63L72.4178 73.67C73.0178 73.67 73.5878 73.92 74.0078 74.35L77.1578 77.58C77.5778 78.01 78.1478 78.25 78.7478 78.26L85.9078 78.35C86.5078 78.35 87.0878 78.13 87.5178 77.71L90.7478 74.56C91.1778 74.14 91.7578 73.91 92.3578 73.92H92.5478L145.618 74.58C146.868 74.6 147.868 75.62 147.848 76.87L147.808 80.26L92.4778 79.58L85.8978 79.5L55.2178 79.12V79.1Z" fill="#FFAB19"/>
</g>
<path d="M55.2179 78.53L147.818 79.67L147.688 90.4L55.0879 89.26L55.2179 78.53Z" fill="#FFAB19"/>
<mask id="mask11_2139_87591" style="mask-type:luminance" maskUnits="userSpaceOnUse" x="55" y="89" width="93" height="9">
<path d="M55.0911 89.2585L55.0071 96.038L147.6 97.1854L147.684 90.4059L55.0911 89.2585Z" fill="white"/>
</mask>
<g mask="url(#mask11_2139_87591)">
<path d="M55.0877 89.26V88.7L147.688 89.84V90.4C147.668 91.65 146.638 92.65 145.398 92.63L57.3177 91.54C56.0677 91.52 55.0677 90.5 55.0877 89.25V89.26Z" fill="#FFAB19"/>
</g>
<path fill-rule="evenodd" clip-rule="evenodd" d="M331.478 19.71C331.958 19.25 332.608 18.99 333.268 19L334.738 19.03L375.018 19.76C376.408 19.78 377.518 20.93 377.488 22.32L377.038 47.5C377.018 48.89 375.868 50 374.478 49.97L334.198 49.24L332.728 49.21C332.058 49.2 331.418 49.45 330.938 49.92L327.318 53.42C326.838 53.88 326.188 54.14 325.528 54.13L317.548 53.99C316.878 53.98 316.248 53.7 315.778 53.22L312.278 49.6C311.818 49.12 311.178 48.84 310.508 48.83L309.038 48.8L303.998 48.71C302.608 48.69 301.498 47.54 301.528 46.15L301.978 20.97C302.008 19.58 303.148 18.47 304.538 18.5L309.578 18.59L311.048 18.62C311.718 18.63 312.348 18.91 312.818 19.39L316.318 23.01C316.778 23.49 317.418 23.77 318.088 23.78L326.068 23.92C326.738 23.93 327.378 23.68 327.858 23.22L331.478 19.72V19.71Z" fill="#7E69AD"/>
<path d="M315.078 44C314.728 43.65 314.378 43.3 314.028 42.96" stroke="#EDE4F1" stroke-width="2.96" stroke-miterlimit="10" stroke-linecap="round"/>
<path d="M309.528 38.79C268.908 3.39 231.738 29.82 220.698 39.39" stroke="#EDE4F1" stroke-width="2.96" stroke-miterlimit="10" stroke-linecap="round"/>
<path d="M218.428 41.44C217.738 42.1 217.378 42.48 217.378 42.48" stroke="#EDE4F1" stroke-width="2.96" stroke-miterlimit="10" stroke-linecap="round"/>
<path d="M314.748 43.74C313.218 43.74 311.328 44.87 310.238 45.89C312.698 45.54 315.298 45.69 317.628 46.66C316.648 44.34 316.668 41.73 316.938 39.26C315.898 40.47 314.798 42.11 314.738 43.74H314.748Z" fill="#EDE4F1"/>
<path d="M112.388 52.1C112.788 51.85 113.188 51.61 113.588 51.38" stroke="#FFE5CC" stroke-width="2.8" stroke-miterlimit="10" stroke-linecap="round"/>
<path d="M118.638 48.56C163.788 25.12 191.998 57.64 200.008 68.88" stroke="#FFE5CC" stroke-width="2.8" stroke-miterlimit="10" stroke-linecap="round"/>
<path d="M201.638 71.26C202.128 72.02 202.368 72.45 202.368 72.45" stroke="#FFE5CC" stroke-width="2.8" stroke-miterlimit="10" stroke-linecap="round"/>
<path d="M112.748 51.94C113.078 50.53 112.438 48.55 111.728 47.34C111.528 49.68 110.838 52.04 109.438 53.98C111.778 53.57 114.178 54.14 116.398 54.92C115.508 53.7 114.238 52.34 112.738 51.95L112.748 51.94Z" fill="#FFE5CC"/>
<path fill-rule="evenodd" clip-rule="evenodd" d="M331.248 59.11C331.718 58.6 332.368 58.3 333.068 58.27L334.598 58.21L380.958 56.29C382.398 56.23 383.618 57.35 383.678 58.79L384.598 81.65C384.658 83.09 383.538 84.31 382.088 84.37L335.728 86.29L334.198 86.35C333.508 86.38 332.848 86.68 332.378 87.19L328.838 91.04C328.368 91.55 327.718 91.85 327.018 91.88L318.738 92.22C318.048 92.25 317.368 92 316.858 91.53L313.018 87.99C312.508 87.52 311.828 87.27 311.138 87.3L309.608 87.36L304.388 87.58C302.948 87.64 301.728 86.52 301.668 85.08L300.748 62.22C300.688 60.78 301.808 59.56 303.258 59.5L308.478 59.28L310.008 59.22C310.698 59.19 311.378 59.44 311.888 59.91L315.728 63.45C316.238 63.92 316.918 64.17 317.608 64.14L325.888 63.8C326.578 63.77 327.238 63.47 327.708 62.96L331.248 59.11Z" fill="#00A87D"/>
</g>
<defs>
<clipPath id="clip0_2139_87591">
<rect width="329.6" height="90.18" fill="white" transform="translate(55 7)"/>
</clipPath>
</defs>
</svg>
