<svg width="440" height="106" viewBox="0 0 440 106" fill="none" xmlns="http://www.w3.org/2000/svg">
<g clip-path="url(#clip0_1997_8628)">
<path d="M439.83 0H1V105.89H439.83V0Z" fill="white"/>
<path fill-rule="evenodd" clip-rule="evenodd" d="M161.89 39.48C162.34 39.02 162.96 38.76 163.6 38.75H165.02L233.12 38.13C234.46 38.12 235.56 39.2 235.57 40.54L235.79 64.86C235.8 66.2 234.72 67.3 233.38 67.31L165.28 67.92H163.86C163.21 67.94 162.6 68.2 162.15 68.66L158.74 72.13C158.29 72.59 157.67 72.85 157.03 72.86L149.32 72.93C148.67 72.93 148.05 72.69 147.59 72.23L144.12 68.82C143.66 68.37 143.04 68.12 142.39 68.12H140.97L136.11 68.18C134.77 68.19 133.67 67.11 133.66 65.77L133.44 41.45C133.43 40.11 134.51 39.01 135.85 39L140.71 38.96H142.13C142.78 38.94 143.4 39.19 143.86 39.64L147.33 43.05C147.79 43.5 148.41 43.75 149.06 43.75L156.77 43.68C157.42 43.68 158.03 43.41 158.48 42.95L161.89 39.48Z" fill="#4C7DBF"/>
<path fill-rule="evenodd" clip-rule="evenodd" d="M162.25 67.89C162.7 67.43 163.32 67.16 163.96 67.16L165.38 67.14L204.3 66.67C205.64 66.65 206.75 67.73 206.76 69.07L207.05 93.39C207.07 94.73 205.99 95.84 204.65 95.85L165.73 96.32L164.31 96.34C163.66 96.34 163.05 96.61 162.6 97.07L159.2 100.55C158.75 101.01 158.13 101.28 157.49 101.28L149.78 101.37C149.13 101.37 148.51 101.13 148.05 100.68L144.57 97.28C144.11 96.83 143.49 96.58 142.84 96.59L141.42 96.61L136.56 96.67C135.22 96.69 134.11 95.61 134.1 94.27L133.81 69.95C133.79 68.61 134.87 67.5 136.21 67.49L141.07 67.43L142.49 67.41C143.14 67.41 143.76 67.65 144.22 68.1L147.7 71.5C148.16 71.95 148.78 72.2 149.43 72.19L157.14 72.1C157.78 72.1 158.4 71.83 158.85 71.37L162.25 67.89Z" fill="#EC9D22"/>
<path d="M133.73 38.47L133.21 12.96C133.21 12.96 142.28 3.52003 160.83 3.14003C179.39 2.76003 188.83 11.83 188.83 11.83L220.44 11.19C221.74 11.16 222.76 12.19 222.79 13.44L223.26 36.6C223.29 37.9 222.26 38.92 221.01 38.95L162.54 40.14C161.94 40.15 161.34 40.41 160.9 40.87L157.67 44.24C157.23 44.7 156.68 44.96 156.03 44.97L148.68 45.12C148.08 45.13 147.47 44.89 147.02 44.45L143.65 41.22C143.19 40.78 142.64 40.54 141.99 40.55L135.99 40.67C134.84 40.79 133.77 39.76 133.74 38.46L133.73 38.47Z" fill="#FDBE10"/>
<path fill-rule="evenodd" clip-rule="evenodd" d="M311.87 39.48C312.32 39.02 312.94 38.76 313.58 38.75H315L383.1 38.13C384.44 38.12 385.54 39.2 385.55 40.54L385.77 64.86C385.78 66.2 384.7 67.3 383.36 67.31L315.26 67.92H313.84C313.19 67.94 312.58 68.2 312.13 68.66L308.72 72.13C308.27 72.59 307.65 72.85 307.01 72.86L299.3 72.93C298.65 72.93 298.03 72.69 297.57 72.23L294.1 68.82C293.64 68.37 293.02 68.12 292.37 68.12H290.95L286.09 68.18C284.75 68.19 283.65 67.11 283.64 65.77L283.42 41.45C283.41 40.11 284.49 39.01 285.83 39L290.69 38.96H292.11C292.76 38.94 293.38 39.19 293.84 39.64L297.31 43.05C297.77 43.5 298.39 43.75 299.04 43.75L306.75 43.68C307.4 43.68 308.01 43.41 308.46 42.95L311.87 39.48Z" fill="#AF5AA3"/>
<path fill-rule="evenodd" clip-rule="evenodd" d="M312.23 67.89C312.68 67.43 313.3 67.16 313.94 67.16L315.36 67.14L354.28 66.67C355.62 66.65 356.73 67.73 356.74 69.07L357.03 93.39C357.05 94.73 355.97 95.84 354.63 95.85L315.71 96.32L314.29 96.34C313.64 96.34 313.03 96.61 312.58 97.07L309.18 100.55C308.73 101.01 308.11 101.28 307.47 101.28L299.76 101.37C299.11 101.37 298.49 101.13 298.03 100.68L294.55 97.28C294.09 96.83 293.47 96.58 292.82 96.59L291.4 96.61L286.54 96.67C285.2 96.69 284.09 95.61 284.08 94.27L283.79 69.95C283.77 68.61 284.85 67.5 286.19 67.49L291.05 67.43L292.47 67.41C293.12 67.41 293.74 67.65 294.2 68.1L297.68 71.5C298.14 71.95 298.76 72.2 299.41 72.19L307.12 72.1C307.76 72.1 308.38 71.83 308.83 71.37L312.23 67.89Z" fill="#7E69AD"/>
<path d="M283.7 38.86L283.18 13.48C283.18 13.48 292.2 4.09003 310.66 3.71003C329.12 3.33003 338.52 12.36 338.52 12.36L369.97 11.72C371.26 11.69 372.28 12.72 372.31 13.96L372.78 37C372.81 38.29 371.78 39.31 370.54 39.34L312.36 40.52C311.76 40.53 311.17 40.79 310.73 41.25L307.51 44.6C307.07 45.06 306.53 45.32 305.88 45.33L298.56 45.48C297.96 45.49 297.36 45.26 296.9 44.82L293.55 41.6C293.09 41.16 292.54 40.92 291.89 40.94L285.92 41.06C284.78 41.18 283.71 40.16 283.68 38.86H283.7Z" fill="#FDBE10"/>
<path d="M380.94 60.46C380.61 58.69 380.27 54.86 382.44 51.09C382.83 50.42 383.77 50.54 384.05 51.2C384.77 53.14 386.16 56.24 388.37 57.96C388.87 58.29 389.48 58.4 390.03 58.24C394.58 56.69 417.19 49.98 425 66.78C433.7 85.46 420.95 98.1 404.05 101.92C386.92 105.8 379.72 96.99 374.62 86.07C368.69 73.43 377.45 64.62 380.27 62.18C380.82 61.74 381.05 61.13 380.93 60.46H380.94Z" fill="#5FC8DE"/>
<path d="M394.85 77.48C392.19 76.76 391.52 72.38 395.02 87.84C395.02 87.9 395.02 87.95 395.08 88.01C395.41 89.62 393.86 90.95 391.7 90.95C389.54 90.95 387.43 89.62 387.1 88.01C386.77 86.4 388.32 85.07 390.48 85.07C390.92 85.07 391.42 85.13 391.87 85.24C392.09 85.3 392.31 85.35 392.53 85.46C393.14 85.46 392.42 83.8 391.2 76.7C389.65 67.89 393.42 75.37 397.52 74.7C401.57 74.09 397.52 78.14 394.86 77.47L394.85 77.48Z" fill="white"/>
<path d="M410.59 71.9901C407.93 71.2701 407.26 66.8901 410.76 82.3501C410.76 82.4101 410.76 82.4601 410.82 82.5201C411.15 84.1301 409.6 85.4601 407.44 85.4601C405.28 85.4601 403.17 84.1301 402.84 82.5201C402.51 80.9101 404.06 79.5801 406.22 79.5801C406.66 79.5801 407.16 79.6401 407.61 79.7501C407.83 79.8101 408.05 79.8601 408.28 79.9701C408.89 79.9701 408.17 78.3101 406.95 71.2101C405.4 62.4001 409.17 69.8801 413.27 69.2701C417.32 68.6001 413.27 72.6501 410.61 71.9901H410.59Z" fill="white"/>
<path fill-rule="evenodd" clip-rule="evenodd" d="M28.3901 1.35002C33.5001 -0.269985 38.9601 2.55001 40.5801 7.66002C42.1901 12.76 39.3501 18.21 34.2401 19.82C29.1301 21.43 23.6901 18.61 22.0701 13.52C20.4501 8.43002 23.2801 2.96002 28.3901 1.35002ZM29.0201 3.35002C33.0301 2.08002 37.3001 4.30002 38.5701 8.30002C39.8401 12.3 37.6201 16.57 33.6101 17.84C29.6001 19.11 25.3301 16.89 24.0601 12.89C22.7901 8.89002 25.0101 4.62002 29.0201 3.35002Z" fill="#CE8B2A"/>
<path d="M34.9294 15.7154L31.2971 16.8655L33.4344 23.6152L37.0666 22.4651L34.9294 15.7154Z" fill="#CE8B2A"/>
<path fill-rule="evenodd" clip-rule="evenodd" d="M10.7101 27.09L15.7401 21.58C16.0801 21.22 16.6601 21.19 17.0301 21.53C17.4101 21.86 17.4301 22.45 17.1001 22.81L12.0601 28.33C11.7201 28.69 11.1401 28.72 10.7701 28.38C10.4101 28.04 10.3701 27.46 10.7201 27.09H10.7101Z" fill="#FAA91E"/>
<path fill-rule="evenodd" clip-rule="evenodd" d="M12.4602 27.85L16.6602 23.27L19.4802 25.83C19.7302 26.06 19.7402 26.45 19.5202 26.72L16.1502 30.37C15.9302 30.63 15.5302 30.65 15.2802 30.41L12.4602 27.85Z" fill="#EB9C22"/>
<path fill-rule="evenodd" clip-rule="evenodd" d="M16.78 29.7098L18.9 27.3898L22.23 30.4498L20.11 32.7598L16.78 29.7098Z" fill="#CE8B2A"/>
<path fill-rule="evenodd" clip-rule="evenodd" d="M57.6602 12.22L50.3702 10.61C49.8902 10.51 49.3902 10.82 49.2902 11.31C49.1902 11.79 49.4902 12.29 49.9902 12.39L57.2802 14C57.7602 14.1 58.2602 13.79 58.3602 13.3C58.4802 12.81 58.1602 12.32 57.6602 12.22Z" fill="#FAA91E"/>
<path fill-rule="evenodd" clip-rule="evenodd" d="M56.6702 13.85L50.6002 12.53L49.7802 16.24C49.6902 16.57 49.9102 16.91 50.2602 16.99L55.1002 18.04C55.4302 18.13 55.7702 17.91 55.8502 17.56L56.6702 13.84V13.85Z" fill="#EB9C22"/>
<path fill-rule="evenodd" clip-rule="evenodd" d="M54.2002 17.86L51.1402 17.18L50.1702 21.6L53.2302 22.27L54.2002 17.86Z" fill="#CE8B2A"/>
<path fill-rule="evenodd" clip-rule="evenodd" d="M34.4201 20.39C50.1001 15.42 66.8301 24.09 71.7901 39.75C76.7401 55.39 68.0501 72.11 52.3701 77.08C36.6901 82.05 19.9601 73.38 15.0001 57.73C10.0401 42.07 18.7301 25.35 34.4101 20.38L34.4201 20.39Z" fill="#EB9C22"/>
<path fill-rule="evenodd" clip-rule="evenodd" d="M34.42 20.39C50.1 15.42 66.8301 24.09 71.7901 39.75C73.18 44.15 73.49 48.63 72.88 52.91C69.28 56.8 64.66 59.84 59.26 61.55C42.69 66.8 24.99 57.63 19.75 41.08C18.88 38.32 18.4 35.51 18.3 32.75C21.92 27.07 27.49 22.59 34.41 20.4L34.42 20.39Z" fill="#FAA91E"/>
<path fill-rule="evenodd" clip-rule="evenodd" d="M35.8102 24.8C49.0502 20.61 63.1702 27.93 67.3502 41.15C71.5302 54.36 64.2102 68.47 50.9702 72.67C37.7302 76.86 23.6102 69.54 19.4302 56.33C15.2402 43.11 22.5702 28.99 35.8102 24.8Z" fill="#FCBD4D"/>
<path fill-rule="evenodd" clip-rule="evenodd" d="M35.8101 24.8C49.0501 20.61 63.1701 27.93 67.3501 41.15C69.1701 46.91 68.8001 52.84 66.7201 58.05C64.4501 59.51 61.9501 60.68 59.2601 61.54C42.6901 66.79 24.9901 57.62 19.7501 41.07C19.7001 40.92 19.6601 40.78 19.6201 40.61C22.1101 33.34 27.9101 27.3 35.8101 24.79V24.8Z" fill="#FFD998"/>
<path fill-rule="evenodd" clip-rule="evenodd" d="M36.4102 26.7C48.5902 22.84 61.6002 29.59 65.4502 41.76C69.3002 53.93 62.5502 66.92 50.3702 70.77C38.1902 74.63 25.1802 67.88 21.3402 55.73C17.4902 43.56 24.2302 30.56 36.4202 26.7H36.4102Z" fill="#FFE2B2"/>
<path fill-rule="evenodd" clip-rule="evenodd" d="M36.41 26.7C48.59 22.84 61.6 29.59 65.45 41.76C67.42 47.98 66.61 54.43 63.73 59.75C62.31 60.46 60.81 61.06 59.26 61.55C43.64 66.5 27.02 58.64 20.78 43.86C22.48 36.02 28.22 29.3 36.42 26.71L36.41 26.7Z" fill="#FFF3CC"/>
<path d="M27.0703 34.29L30.2003 37.15L30.9503 36.33L27.8203 33.47L27.0703 34.29Z" fill="#C37929"/>
<path d="M22.2002 44.27L26.3502 45.18L26.6002 44.09L22.4502 43.17L22.2002 44.27Z" fill="#C37929"/>
<path d="M38.1001 69.12L39.1901 69.36L40.1001 65.21L39.0101 64.98L38.1001 69.12Z" fill="#C37929"/>
<path d="M26.6894 52.993L22.6377 54.2759L22.9758 55.3437L27.0275 54.0607L26.6894 52.993Z" fill="#C37929"/>
<path d="M28.3701 63.7701L29.2101 64.5201L32.0701 61.3701L31.2401 60.6201L28.3701 63.7701Z" fill="#C37929"/>
<path d="M58.1502 32.8801L57.3202 32.1301L54.4502 35.2701L55.2802 36.0201L58.1502 32.8801Z" fill="#C37929"/>
<path d="M59.9302 52.55L64.0802 53.47L64.3302 52.38L60.1702 51.46L59.9302 52.55Z" fill="#C37929"/>
<path d="M46.4302 31.43L47.5202 31.67L48.4402 27.52L47.3402 27.29L46.4302 31.43Z" fill="#C37929"/>
<path d="M63.5376 41.3234L59.4858 42.6064L59.8239 43.6741L63.8757 42.3912L63.5376 41.3234Z" fill="#C37929"/>
<path d="M37.3387 27.7405L36.271 28.0786L37.5509 32.1208L38.6187 31.7827L37.3387 27.7405Z" fill="#C37929"/>
<path d="M55.5703 60.3101L58.7003 63.18L59.4703 62.3601L56.3303 59.4901L55.5703 60.3101Z" fill="#C37929"/>
<path d="M48.9784 64.5208L47.9106 64.8589L49.1906 68.9011L50.2583 68.563L48.9784 64.5208Z" fill="#C37929"/>
<path d="M58.1502 32.8801L57.3202 32.1301L54.4502 35.2701L55.2802 36.0201L58.1502 32.8801Z" fill="#CE8B2A"/>
<path d="M27.0703 34.29L30.2003 37.15L30.9503 36.33L27.8203 33.47L27.0703 34.29Z" fill="#CE8B2A"/>
<path d="M37.3387 27.7405L36.271 28.0786L37.5509 32.1208L38.6187 31.7827L37.3387 27.7405Z" fill="#CE8B2A"/>
<path d="M22.2002 44.27L26.3502 45.18L26.6002 44.09L22.4502 43.17L22.2002 44.27Z" fill="#CE8B2A"/>
<path d="M46.4302 31.43L47.5202 31.67L48.4402 27.52L47.3402 27.29L46.4302 31.43Z" fill="#CE8B2A"/>
<path d="M63.5376 41.3234L59.4858 42.6064L59.8239 43.6741L63.8757 42.3912L63.5376 41.3234Z" fill="#CE8B2A"/>
<path d="M55.5703 60.3101L57.4703 62.0401C57.8903 61.9401 58.3203 61.8201 58.7503 61.7001L56.3303 59.4901L55.5803 60.3101H55.5703Z" fill="#CE8B2A"/>
<path d="M59.9302 52.55L64.0802 53.47L64.3302 52.38L60.1702 51.46L59.9302 52.55Z" fill="#CE8B2A"/>
<path fill-rule="evenodd" clip-rule="evenodd" d="M30.63 17.07L35.6 15.49C35.73 15.45 35.81 15.29 35.77 15.16L35.49 14.28L30.03 16.01L30.31 16.89C30.35 17.02 30.49 17.11 30.62 17.06L30.63 17.07Z" fill="#FAA91E"/>
<path fill-rule="evenodd" clip-rule="evenodd" d="M29.0901 16.32L36.4501 13.99C36.7901 13.88 36.9601 13.52 36.8601 13.19L35.4501 8.75001C35.3401 8.41001 34.9901 8.22001 34.6601 8.33001L27.3001 10.66C26.9601 10.77 26.7701 11.13 26.8801 11.47L28.2901 15.91C28.4001 16.25 28.7601 16.44 29.1001 16.33L29.0901 16.32Z" fill="#EB9C22"/>
<path d="M29.0708 10.9425L28.27 11.196L29.5741 15.3145L30.3749 15.0609L29.0708 10.9425Z" fill="#FFD998"/>
<path d="M34.1477 9.33414L33.3469 9.58771L34.651 13.7062L35.4518 13.4526L34.1477 9.33414Z" fill="#FFD998"/>
<path d="M31.6175 10.1305L30.7976 10.3901L32.1017 14.5086L32.9216 14.249L31.6175 10.1305Z" fill="#FFD998"/>
<path fill-rule="evenodd" clip-rule="evenodd" d="M51.4901 30.2L52.3001 30.57L40.4701 57.78L38.3701 56.82L51.4901 30.2Z" fill="#CE8B2A"/>
<path fill-rule="evenodd" clip-rule="evenodd" d="M42.3002 45.28C44.2202 44.67 46.2602 45.73 46.8602 47.64C47.4602 49.54 46.4002 51.58 44.4902 52.19C42.5802 52.8 40.5502 51.73 39.9502 49.84C39.3502 47.95 40.4002 45.89 42.3102 45.28H42.3002Z" fill="#EB9C22"/>
<path fill-rule="evenodd" clip-rule="evenodd" d="M42.8902 47.15C43.7702 46.87 44.7002 47.37 44.9702 48.24C45.2402 49.11 44.7702 50.04 43.8902 50.32C43.0102 50.6 42.0802 50.1 41.8102 49.24C41.5402 48.38 42.0102 47.43 42.8902 47.15Z" fill="#CE8B2A"/>
<path d="M53.8163 89.9543L58.1702 96.5223L106.655 64.3822L102.301 57.8143L53.8163 89.9543Z" fill="#2B8EB8"/>
<path d="M94.9701 72.49L93.2301 69.83L90.4601 65.6C89.6301 64.33 87.9201 63.98 86.6501 64.81L50.2501 88.67C48.9801 89.5 48.6301 91.21 49.4601 92.48L53.3301 98.38L53.9801 99.36C54.8101 100.63 56.5201 100.98 57.7901 100.15L94.1901 76.29C95.4601 75.46 95.8101 73.75 94.9801 72.48L94.9701 72.49Z" fill="#F47F20"/>
<path d="M94.9701 72.49L93.2301 69.83C90.8001 74.01 87.0001 76.48 83.1601 79.26C77.2801 83.51 71.3201 87.65 65.4001 91.84C61.8901 94.32 58.1101 97.18 53.9001 98.28C53.7201 98.33 53.5301 98.36 53.3301 98.38L53.9801 99.36C54.8101 100.63 56.5201 100.98 57.7901 100.15L94.1901 76.29C95.4601 75.46 95.8101 73.75 94.9801 72.48L94.9701 72.49Z" fill="#D96F27"/>
<path d="M103.31 60.95C111.86 73.85 129.25 77.38 142.15 68.83C155.05 60.28 158.58 42.89 150.03 29.99C141.48 17.09 124.09 13.56 111.19 22.11C98.2901 30.66 94.7601 48.05 103.31 60.95ZM113.65 25.83C124.49 18.64 139.11 21.61 146.3 32.45C153.49 43.29 150.52 57.91 139.68 65.1C128.84 72.29 114.22 69.32 107.03 58.48C99.8401 47.64 102.81 33.02 113.65 25.83Z" fill="#2B8EB8"/>
<path opacity="0.2" d="M144.554 60.7987C153.024 50.9207 151.882 36.0471 142.004 27.5776C132.126 19.1081 117.252 20.2499 108.783 30.128C100.313 40.006 101.455 54.8796 111.333 63.3491C121.211 71.8186 136.085 70.6767 144.554 60.7987Z" fill="#2B8EB8"/>
<path d="M225.35 19.69C225.84 19.62 226.34 19.55 226.84 19.47" stroke="#FFE2B2" stroke-width="2.85" stroke-miterlimit="10" stroke-linecap="round"/>
<path d="M232.74 18.74C236.04 18.43 239.35 18.34 242.63 18.78C248.37 19.54 254.12 22.12 257.43 26.87C260.17 30.79 260.97 35.71 261.67 40.44C262.09 43.24 262.49 46.13 261.82 48.89C260.86 52.86 261.27 58.44 257.82 60.63C253.79 63.2 245.3 62.04 242.09 58.5C239.24 55.36 239.16 42.9 254.95 44.59C258.37 44.96 261.87 45.96 264.36 48.33C267.95 51.76 268.59 57.15 269.93 61.93C270.85 65.21 272.65 68.7 275.29 70.59" stroke="#FFE2B2" stroke-width="2.85" stroke-miterlimit="10" stroke-linecap="round"/>
<path d="M277.96 71.84C278.44 71.95 278.93 72.02 279.44 72.03" stroke="#FFE2B2" stroke-width="2.85" stroke-miterlimit="10" stroke-linecap="round"/>
</g>
<defs>
<clipPath id="clip0_1997_8628">
<rect width="438.83" height="105.89" fill="white" transform="translate(1)"/>
</clipPath>
</defs>
</svg>
