<svg width="440" height="106" viewBox="0 0 440 106" fill="none" xmlns="http://www.w3.org/2000/svg">
<g clip-path="url(#clip0_1997_8586)">
<path d="M439.83 0H1V105.89H439.83V0Z" fill="white"/>
<path fill-rule="evenodd" clip-rule="evenodd" d="M275.2 5.87035H328.48C335.36 5.87035 340.97 12.3904 340.97 20.4104C340.97 28.4304 335.36 34.9504 328.48 34.9504H293.67V35.0204C286.86 46.7904 276.69 47.6903 277.66 42.3703C278.33 38.7003 278.86 37.0504 278.33 35.0204H275.26C268.38 35.0204 262.77 28.5004 262.77 20.4804C262.7 12.3804 268.23 5.86035 275.19 5.86035L275.2 5.87035Z" fill="#BFCCDC"/>
<path fill-rule="evenodd" clip-rule="evenodd" d="M62.7599 32.3304C63.1299 31.7404 63.7099 31.3204 64.3899 31.1704L65.8799 30.8304L111.09 20.3904C112.5 20.0704 113.9 20.9404 114.22 22.3504L119.34 44.6404C119.66 46.0504 118.79 47.4504 117.38 47.7804L72.1699 58.2204L70.6799 58.5604C69.9999 58.7204 69.4199 59.1304 69.0499 59.7204L66.2799 64.1504C65.9099 64.7404 65.3299 65.1604 64.6499 65.3104L56.5699 67.1804C55.8899 67.3404 55.1899 67.2204 54.5999 66.8504L50.1699 64.0804C49.5799 63.7104 48.8699 63.5904 48.1999 63.7504L46.7099 64.0904L41.6199 65.2704C40.2099 65.5904 38.8099 64.7204 38.4899 63.3104L33.3699 41.0204C33.0499 39.6104 33.9199 38.2104 35.3299 37.8804L40.4199 36.7004L41.9099 36.3604C42.5899 36.2004 43.2999 36.3204 43.8799 36.6904L48.3099 39.4604C48.8999 39.8304 49.6099 39.9504 50.2799 39.7904L58.3599 37.9204C59.0399 37.7604 59.6199 37.3504 59.9899 36.7604L62.7599 32.3304Z" fill="#00A87D"/>
<path fill-rule="evenodd" clip-rule="evenodd" d="M108.05 60.9709C108.42 60.3809 109 59.9609 109.68 59.8109L111.17 59.4709L121.36 57.1209C122.77 56.8009 124.17 57.6709 124.49 59.0809L129.61 81.3709C129.93 82.7809 129.06 84.1809 127.65 84.5109L117.46 86.8609L115.97 87.2009C115.29 87.3609 114.71 87.7709 114.34 88.3609L111.57 92.7909C111.2 93.3809 110.62 93.8009 109.94 93.9509L101.86 95.8209C101.18 95.9809 100.48 95.8609 99.89 95.4909L95.46 92.7209C94.87 92.3509 94.16 92.2309 93.49 92.3909L92 92.7409L86.91 93.9209C85.5 94.2409 84.1 93.3709 83.78 91.9609L78.66 69.6709C78.34 68.2609 79.21 66.8609 80.62 66.5309L85.71 65.3509L87.2 65.0009C87.88 64.8409 88.58 64.9609 89.17 65.3309L93.6 68.1009C94.19 68.4709 94.9 68.5909 95.57 68.4309L103.65 66.5609C104.33 66.4009 104.91 65.9909 105.28 65.4009L108.05 60.9709Z" fill="#7267AD"/>
<path d="M205.21 14.2803H152.03C150.07 14.2803 148.48 15.8703 148.48 17.8403V64.4503C148.48 66.4203 150.07 68.0103 152.03 68.0103H205.21C207.17 68.0103 208.76 66.4203 208.76 64.4503V17.8403C208.76 15.8703 207.17 14.2803 205.21 14.2803Z" fill="#1B93BE"/>
<path d="M205.21 14.81C206.01 14.81 206.78 15.13 207.35 15.7C207.92 16.27 208.23 17.04 208.23 17.84V64.45C208.23 65.25 207.91 66.02 207.35 66.59C206.78 67.16 206.01 67.48 205.21 67.48H152.02C151.22 67.48 150.45 67.16 149.88 66.59C149.31 66.02 148.99 65.25 148.99 64.45V17.84C148.99 17.04 149.31 16.27 149.88 15.7C150.45 15.13 151.22 14.81 152.02 14.81H205.21ZM205.21 13.75H152.02C150.94 13.75 149.9 14.18 149.14 14.95C148.38 15.72 147.95 16.75 147.94 17.84V64.45C147.94 65.53 148.37 66.57 149.14 67.34C149.9 68.11 150.94 68.54 152.02 68.54H205.21C206.29 68.54 207.33 68.11 208.09 67.34C208.85 66.57 209.28 65.54 209.29 64.45V17.84C209.29 16.76 208.86 15.72 208.09 14.95C207.33 14.18 206.29 13.75 205.21 13.75Z" fill="#BFCCDC"/>
<path d="M210.29 14.8105C213.76 14.8105 216.57 11.9905 216.57 8.52047C216.57 5.05047 213.76 2.23047 210.29 2.23047C206.82 2.23047 204.01 5.05047 204.01 8.52047C204.01 11.9905 206.82 14.8105 210.29 14.8105Z" fill="black"/>
<path d="M214.58 27.7704C214.58 27.7704 219.05 25.9604 217.4 31.8804C215.75 37.8004 212.87 34.8304 212.87 34.8304C212.87 34.8304 212.59 32.1904 212.83 31.2404C213.04 30.4004 214.59 27.7704 214.59 27.7704H214.58Z" fill="#977945"/>
<path d="M191.66 41.7406C191.66 41.7406 185.36 37.4205 175.75 39.4805C165.22 41.7405 161.19 45.0705 161.19 45.0705L166.72 58.0305L169.29 58.6005C169.44 58.6305 169.58 58.7005 169.7 58.7805C169.82 58.8705 169.93 58.9805 170.01 59.1105C170.09 59.2405 170.14 59.3805 170.17 59.5305C170.19 59.6805 170.19 59.8305 170.15 59.9805L168.26 67.4705H201.91C201.91 67.4705 207.71 68.3605 208.24 65.0805V45.9305C208.24 45.9305 207.9 44.6205 203.87 44.7805C199.83 44.9405 191.68 41.7305 191.68 41.7305L191.66 41.7406Z" fill="#EE3E69"/>
<path d="M194.8 36.7405C194.8 36.7405 194.58 39.1905 191.66 41.7305C191.66 41.7305 193.77 46.8205 196.78 48.0305C199.79 49.2405 202.39 47.0205 202.39 47.0205C204.18 45.3005 205.31 42.3605 205.31 42.3605L194.81 36.7305L194.8 36.7405Z" fill="#977945"/>
<path d="M217.54 25.0505C217.54 15.9205 210.79 8.52051 202.47 8.52051C194.15 8.52051 189.83 15.9205 189.83 25.0505C189.83 31.1005 193.45 36.0405 197.18 38.9105C198.02 39.5505 198.97 40.4505 199.75 41.0005C201.36 42.1305 203.53 43.8105 206.97 44.1605C212.01 44.6805 215.88 37.5305 215.97 34.2105C216.02 33.2505 216.17 32.3005 216.4 31.3605C217.13 29.3305 217.51 27.1905 217.52 25.0305L217.54 25.0505Z" fill="#A57E4C"/>
<path d="M203.34 30.3209C203.36 29.7409 202.99 29.2609 202.52 29.2409C202.05 29.2209 201.65 29.6809 201.63 30.2609C201.61 30.8409 201.98 31.3209 202.45 31.3409C202.92 31.3609 203.32 30.9009 203.34 30.3209Z" fill="black"/>
<path d="M213.26 30.6607C213.28 30.0807 212.91 29.6007 212.44 29.5807C211.97 29.5607 211.57 30.0207 211.55 30.6007C211.53 31.1807 211.9 31.6607 212.37 31.6807C212.84 31.7007 213.24 31.2407 213.26 30.6607Z" fill="black"/>
<path d="M208.66 30.0801C208.66 30.0801 208.29 31.1201 208.72 31.8701C209.15 32.6201 212.41 37.4801 207.32 35.7901" stroke="#663815" stroke-width="0.32" stroke-miterlimit="10" stroke-linecap="round"/>
<path d="M203.4 37.7302C204.5 38.6302 207.97 41.0002 210.63 38.1002C210.65 38.0802 210.66 38.0602 210.67 38.0302C210.67 38.0002 210.67 37.9802 210.66 37.9502C210.65 37.9302 210.63 37.9102 210.61 37.8902C210.59 37.8802 210.56 37.8702 210.53 37.8702L208.72 38.0202C207.79 38.0902 206.86 38.0502 205.94 37.9002L203.5 37.4902C203.5 37.4902 203.44 37.4902 203.42 37.5102C203.4 37.5202 203.38 37.5502 203.36 37.5702C203.35 37.6002 203.35 37.6202 203.36 37.6502C203.36 37.6802 203.38 37.7002 203.4 37.7202V37.7302Z" fill="white"/>
<path d="M192.01 16.3808C195.48 16.3808 198.29 13.5608 198.29 10.0908C198.29 6.62078 195.48 3.80078 192.01 3.80078C188.54 3.80078 185.73 6.62078 185.73 10.0908C185.73 13.5608 188.54 16.3808 192.01 16.3808Z" fill="black"/>
<path d="M191.32 16.5904C190.16 19.8904 189.66 23.3804 189.85 26.8704C189.85 26.8704 191.32 26.0804 192.63 28.2504C192.63 28.2504 197.38 17.4404 205.3 17.1404C205.3 17.1404 205.35 10.3204 200.89 8.61035C198.71 8.84035 196.65 9.74035 195.01 11.1904C193.39 12.6904 192.14 14.5404 191.33 16.5904H191.32Z" fill="black"/>
<path d="M206.27 17.0303C206.27 17.0303 216.56 17.0603 217.53 24.4003C217.53 24.4003 217.53 14.2103 208.64 9.97027C208.64 9.97027 205.95 8.17027 201.29 8.58027L200.55 8.66027L206.27 17.0303Z" fill="black"/>
<path d="M193.62 26.3408C193.62 26.3408 194.07 30.0208 194.04 31.8708C194.04 31.8708 193.22 28.9008 192.63 28.2608L192.85 26.5208L193.62 26.3508V26.3408Z" fill="black"/>
<path d="M206.09 26.6002C206.2 26.6902 206.09 26.8702 205.94 26.8502C204.75 26.7302 201.53 26.4802 199.28 27.1302C197.65 27.5902 203.35 24.4002 206.08 26.6002H206.09Z" fill="black"/>
<path d="M209.33 26.8504C209.33 26.8504 209.29 26.9004 209.28 26.9304C209.28 26.9604 209.28 26.9904 209.28 27.0204C209.29 27.0504 209.32 27.0704 209.34 27.0904C209.37 27.1004 209.4 27.1104 209.43 27.1004C210.5 27.0404 213.38 26.9604 215.34 27.7104C216.76 28.2504 211.9 24.7904 209.31 26.8404L209.33 26.8504Z" fill="black"/>
<path d="M191.9 27.1405C191.9 27.1405 187.43 25.3305 189.09 31.2505C190.74 37.1705 193.62 34.2005 193.62 34.2005C193.62 34.2005 193.9 31.5605 193.66 30.6105C193.44 29.7705 191.9 27.1405 191.9 27.1405Z" fill="#977945"/>
<path d="M192.79 35.4209C193.22 35.4209 193.56 35.0709 193.56 34.6509C193.56 34.2309 193.21 33.8809 192.79 33.8809C192.37 33.8809 192.02 34.2309 192.02 34.6509C192.02 35.0709 192.37 35.4209 192.79 35.4209Z" fill="#F9A11B"/>
<path d="M161.18 45.0705C161.18 45.0705 143.2 51.0905 142.7 56.2105C142.2 61.3305 141.7 64.5505 163.63 67.4805L176.75 65.5905C176.75 65.5905 160.5 59.0305 157.73 57.6705L166.09 56.5605L161.19 45.0605L161.18 45.0705Z" fill="#A57E4C"/>
<path opacity="0.1" d="M157.73 57.6707C155.47 56.2007 152.86 55.3507 150.17 55.1807" stroke="black" stroke-width="0.32" stroke-miterlimit="10" stroke-linecap="round"/>
<path d="M179.23 65.0302C182.08 64.6102 188.95 64.2702 190.75 64.5902C192.55 64.9002 194.53 71.6702 194.56 72.5002C194.56 73.0302 193.34 72.9802 192.93 72.1302C192.52 71.2802 190.15 67.1802 189.56 67.0502C188.98 66.9102 187.13 67.5002 187.13 67.5002H163.62C163.62 67.5002 176.44 65.4602 179.23 65.0402V65.0302Z" fill="#A57E4C"/>
<path d="M190.15 69.8704C189.69 70.0804 188.93 69.4604 188.76 69.0704L187.24 65.7504C187.2 65.6404 187.18 65.5304 187.18 65.4204C187.18 65.3104 187.21 65.1904 187.26 65.0904C187.31 64.9904 187.38 64.8904 187.46 64.8204C187.54 64.7404 187.64 64.6804 187.75 64.6504C187.95 64.5404 188.18 64.5104 188.39 64.5704C188.61 64.6304 188.79 64.7704 188.9 64.9704L190.42 68.2804C190.6 68.6704 190.61 69.6504 190.15 69.8704Z" fill="#A57E4C"/>
<path d="M186.11 71.9003C185.59 72.0603 184.82 71.3503 184.67 70.8403L183.2 66.1003C183.16 65.9803 183.15 65.8503 183.16 65.7203C183.17 65.5903 183.21 65.4703 183.27 65.3503C183.33 65.2403 183.42 65.1403 183.52 65.0503C183.62 64.9703 183.74 64.9103 183.86 64.8703C184.11 64.7903 184.38 64.8103 184.61 64.9303C184.84 65.0503 185.02 65.2603 185.1 65.5003L186.57 70.2403C186.73 70.7503 186.64 71.7203 186.12 71.8903L186.11 71.9003Z" fill="#A57E4C"/>
<path d="M188.02 70.0205C187.56 70.2305 186.79 69.5805 186.61 69.1805L185.05 65.7605C184.97 65.5505 184.98 65.3105 185.07 65.1105C185.16 64.9005 185.33 64.7405 185.55 64.6605C186.01 64.4505 187.17 64.5705 187.35 64.9705L188.28 68.4105C188.46 68.8105 188.48 69.8105 188.02 70.0205Z" fill="#A57E4C"/>
<path d="M190.04 73.5108C189.54 73.5508 189.04 72.7708 189.01 72.3808L188.73 69.0208C188.74 68.8008 188.84 68.6008 189 68.4508C189.16 68.3008 189.37 68.2208 189.59 68.2308C189.8 68.1908 190.02 68.2308 190.21 68.3508C190.39 68.4708 190.52 68.6508 190.57 68.8708L190.85 72.2308C190.87 72.6208 190.56 73.4808 190.05 73.5208L190.04 73.5108Z" fill="#A57E4C"/>
<path d="M187.81 72.7809C187.3 72.8209 186.82 72.1609 186.79 71.8209L186.55 68.9209C186.52 68.5809 186.92 68.2709 187.41 68.2309C187.92 68.1909 188.35 68.4309 188.38 68.7709L188.62 71.6709C188.65 72.0009 188.31 72.7409 187.81 72.7909V72.7809Z" fill="#A57E4C"/>
<path d="M363.35 46.0713H310.17C308.21 46.0713 306.62 47.6613 306.62 49.6313V96.2413C306.62 98.2113 308.21 99.8013 310.17 99.8013H363.35C365.31 99.8013 366.9 98.2113 366.9 96.2413V49.6313C366.9 47.6613 365.31 46.0713 363.35 46.0713Z" fill="#B662A5"/>
<path d="M363.35 46.601C364.15 46.601 364.92 46.921 365.49 47.491C366.06 48.061 366.38 48.831 366.38 49.631V96.241C366.38 96.641 366.3 97.031 366.15 97.401C366 97.771 365.78 98.101 365.5 98.381C365.22 98.661 364.89 98.891 364.52 99.041C364.15 99.191 363.76 99.271 363.36 99.271H310.16C309.76 99.271 309.37 99.191 309 99.041C308.63 98.891 308.3 98.661 308.02 98.381C307.74 98.101 307.52 97.761 307.37 97.401C307.22 97.031 307.14 96.641 307.14 96.241V49.631C307.14 48.831 307.46 48.061 308.02 47.491C308.58 46.921 309.36 46.601 310.16 46.601H363.36H363.35ZM363.35 45.541H310.15C309.07 45.541 308.03 45.971 307.27 46.741C306.51 47.511 306.08 48.541 306.07 49.631V96.241C306.07 97.321 306.5 98.361 307.27 99.131C308.03 99.901 309.07 100.331 310.15 100.331H363.35C364.43 100.331 365.47 99.901 366.23 99.131C366.99 98.361 367.42 97.331 367.43 96.241V49.631C367.43 48.551 367 47.511 366.23 46.741C365.47 45.971 364.43 45.541 363.35 45.541Z" fill="#BFCCDC"/>
<path d="M343.48 52.8009C340.91 61.5609 332.3 69.2509 324.48 67.1109C316.65 64.9709 312.26 56.1009 314.66 47.2909C317.06 38.4809 325.16 33.9609 333.17 35.2109C342.56 36.6809 345.53 45.8409 343.48 52.8009Z" fill="#D59D7A"/>
<path d="M315.62 44.9111C315.62 44.9111 314.88 47.7211 311.21 48.2711C307.53 48.8211 311.51 51.3911 311.51 51.3911C311.51 51.3911 310.35 51.9511 310.27 52.7811C310.19 53.6111 311.98 54.1411 312.13 54.1811C313.34 54.5211 314.66 54.2311 312.87 55.7211C311.93 56.4911 312.08 56.0311 311.08 56.4611C309.41 57.1711 310.64 58.1211 310.64 58.1211C310.64 58.1211 310.45 61.8711 311.35 63.0711C312.25 64.2711 326.77 67.5711 326.77 67.5711L315.63 44.9111H315.62Z" fill="#D59D7A"/>
<path d="M316.86 47.5612C317.13 47.0512 317.07 46.4912 316.74 46.3212C316.41 46.1512 315.93 46.4312 315.66 46.9412C315.39 47.4512 315.45 48.0112 315.78 48.1812C316.11 48.3512 316.59 48.0712 316.86 47.5612Z" fill="black"/>
<path d="M302.3 83.5606L292.69 90.2106C292.69 90.2106 279.43 82.0106 273.17 78.9006C266.9 75.7906 266.92 81.2306 270.5 84.5506C274.08 87.8706 289.62 99.4106 293 100.131C298.72 101.341 311.38 95.7906 311.38 95.7906L302.3 83.5506V83.5606Z" fill="#D59D7A"/>
<path d="M269.83 85.3304L263.79 84.5204C262.91 84.5204 262.07 84.1704 261.45 83.5504C260.83 82.9304 260.48 82.0904 260.48 81.2104C260.48 80.3304 260.83 79.4904 261.45 78.8704C262.07 78.2504 262.91 77.9004 263.79 77.9004H268.14C269.02 77.9004 269.86 78.2504 270.48 78.8704C271.1 79.4904 271.45 80.3304 271.45 81.2104C271.47 83.0504 271.67 85.3404 269.83 85.3404V85.3304Z" fill="#D59D7A"/>
<path d="M270.64 79.0904C270.64 79.0904 268.51 76.0704 267.06 74.7904C265.6 73.5204 265.03 72.3304 263.73 72.2304C262.42 72.1404 263.06 74.1804 264.34 75.6604L265.51 79.0904H270.64Z" fill="#D59D7A"/>
<path d="M264.09 78.4012L259.86 76.1912C259.86 76.1912 259.81 73.0212 258.76 72.0912C257.71 71.1712 257.48 74.9812 258.12 76.9412C258.76 78.9012 263.56 80.5812 263.56 80.5812L264.1 78.4012H264.09Z" fill="#D59D7A"/>
<path d="M263.31 81.8607C263.31 81.8607 257.85 83.1707 255.51 74.9107C255.51 74.9107 254.26 70.6707 256.53 72.3307C257.73 73.2107 259.23 77.2907 259.23 77.2907L264.01 80.7407L263.31 81.8607Z" fill="#D59D7A"/>
<path d="M263.18 81.501C263.18 81.501 256.74 77.581 255.2 73.311C255.2 73.311 254.3 71.641 253.91 73.531C253.52 75.421 256.01 79.921 256.01 79.921L260.49 82.371L263.18 81.511V81.501Z" fill="#D59D7A"/>
<path d="M263.79 84.5108C263.79 84.5108 257.69 84.0408 256.21 82.4608C254.73 80.8808 253.51 76.9308 253.51 76.9308C253.51 76.9308 254.82 75.3108 256.3 78.6108C258.04 82.5108 263.18 81.4708 263.18 81.4708L263.79 84.5108Z" fill="#D59D7A"/>
<path opacity="0.1" d="M260.09 81.4804C259.38 80.9004 257.25 80.7403 257.25 80.7403C256.47 78.7503 254.65 76.6104 254.65 76.6104C254.65 76.6104 256.89 78.0803 257.42 80.2104L260.09 81.4704V81.4804Z" fill="#241F20"/>
<path opacity="0.1" d="M255.2 73.3105C255.2 73.3105 256.97 76.0105 257.38 78.2005C258.34 78.8105 259.25 79.5006 260.1 80.2606C260.1 80.2606 259.34 78.3206 257.74 77.8706C257.74 77.8806 256.31 73.6605 255.2 73.3105Z" fill="#241F20"/>
<path opacity="0.1" d="M257.74 73.9609C257.74 73.9609 258.95 75.7809 259.23 77.2709C259.23 77.2709 259.68 77.3109 260.8 78.4009C260.8 78.4009 260.12 77.2209 259.59 76.9309C259.59 76.9309 258.74 74.2009 257.74 73.9609Z" fill="#241F20"/>
<path opacity="0.1" d="M263.18 77.9307C263.18 77.9307 261.59 78.5607 260.61 81.6107C260.61 81.6007 260.44 78.1807 263.18 77.9307Z" fill="#241F20"/>
<path d="M335.99 70.341L344.1 75.0611L335.99 75.6711V70.3311V70.341Z" fill="#DF8225"/>
<path d="M301.37 101.961L299.79 100.751C297.47 98.971 295.63 96.631 294.47 93.941L292.78 90.041C292.66 89.751 292.63 89.441 292.71 89.131C292.79 88.831 292.97 88.561 293.22 88.381C293.22 88.381 303.88 82.221 307.15 79.731C309.13 78.131 311.02 76.431 312.81 74.621C316.12 72.141 324.43 69.331 326.9 72.661L328.26 74.501C330.73 77.821 330.93 88.541 327.61 91.011L303.94 101.971C303.57 102.251 303.12 102.391 302.66 102.391C302.2 102.391 301.75 102.231 301.39 101.951L301.37 101.961Z" fill="#DF8225"/>
<path d="M317.3 65.2112C317.3 65.2112 321.27 69.2912 321.51 74.0512C321.7 77.7012 324.28 78.5112 328.3 77.7912C331.18 77.2712 333.85 75.6712 335.35 74.7612C336.85 73.8512 337.25 72.1812 336.27 70.7512L333.02 65.9612L317.31 65.2012L317.3 65.2112Z" fill="#D59D7A"/>
<path d="M316.5 45.3709C316.99 45.5509 317.94 45.1209 318.22 46.5709C318.49 48.0209 319.15 45.3509 318.22 44.6509C316.88 43.6309 315.64 45.0509 316.5 45.3809V45.3709Z" fill="#402314"/>
<path d="M314.13 48.4704C314.21 48.4704 314.27 48.4104 314.27 48.3304C314.27 48.2504 314.21 48.1904 314.13 48.1904C314.05 48.1904 313.99 48.2504 313.99 48.3304C313.99 48.4104 314.05 48.4704 314.13 48.4704Z" fill="#A57E4C"/>
<path d="M313.83 50.1711C313.92 50.1711 314 50.1011 314 50.0011C314 49.9011 313.93 49.8311 313.83 49.8311C313.73 49.8311 313.66 49.9011 313.66 50.0011C313.66 50.1011 313.73 50.1711 313.83 50.1711Z" fill="#A57E4C"/>
<path d="M312.97 48.5011C313.06 48.5011 313.14 48.4311 313.14 48.3311C313.14 48.2311 313.07 48.1611 312.97 48.1611C312.87 48.1611 312.8 48.2311 312.8 48.3311C312.8 48.4311 312.87 48.5011 312.97 48.5011Z" fill="#A57E4C"/>
<path d="M315.59 49.5011C315.68 49.5011 315.76 49.4311 315.76 49.3311C315.76 49.2311 315.69 49.1611 315.59 49.1611C315.49 49.1611 315.42 49.2311 315.42 49.3311C315.42 49.4311 315.49 49.5011 315.59 49.5011Z" fill="#A57E4C"/>
<path d="M317.63 50.9706C317.79 50.9706 317.92 50.8406 317.92 50.6806C317.92 50.5206 317.79 50.3906 317.63 50.3906C317.47 50.3906 317.34 50.5206 317.34 50.6806C317.34 50.8406 317.47 50.9706 317.63 50.9706Z" fill="#A57E4C"/>
<path d="M315.46 50.6511C315.53 50.6511 315.6 50.5911 315.6 50.5111C315.6 50.4311 315.54 50.3711 315.46 50.3711C315.38 50.3711 315.32 50.4311 315.32 50.5111C315.32 50.5911 315.38 50.6511 315.46 50.6511Z" fill="#A57E4C"/>
<path d="M314.52 49.3011C314.52 49.3011 314.59 49.2711 314.59 49.2311C314.59 49.1911 314.56 49.1611 314.52 49.1611C314.48 49.1611 314.45 49.1911 314.45 49.2311C314.45 49.2711 314.48 49.3011 314.52 49.3011Z" fill="#A57E4C"/>
<path d="M315.16 52.131C315.25 52.131 315.33 52.061 315.33 51.961C315.33 51.861 315.26 51.791 315.16 51.791C315.06 51.791 314.99 51.861 314.99 51.961C314.99 52.061 315.06 52.131 315.16 52.131Z" fill="#A57E4C"/>
<path d="M317.19 52.2611C317.19 52.2611 317.26 52.2311 317.26 52.1911C317.26 52.1511 317.23 52.1211 317.19 52.1211C317.15 52.1211 317.12 52.1511 317.12 52.1911C317.12 52.2311 317.15 52.2611 317.19 52.2611Z" fill="#A57E4C"/>
<path d="M316.04 47.7612C316.78 45.8512 316.97 44.1412 316.47 43.9412C315.97 43.7512 314.97 45.1412 314.23 47.0612C313.49 48.9712 313.3 50.6812 313.8 50.8812C314.3 51.0712 315.3 49.6812 316.04 47.7612Z" stroke="#7C4A20" stroke-width="0.51" stroke-miterlimit="10"/>
<path opacity="0.3" d="M315.76 47.7612C316.5 45.8512 316.69 44.1412 316.19 43.9412C315.69 43.7512 314.69 45.1412 313.95 47.0612C313.21 48.9712 313.02 50.6812 313.52 50.8812C314.02 51.0712 315.02 49.6812 315.76 47.7612Z" fill="#D1DBE6"/>
<path d="M316.66 46.291L324.16 49.841" stroke="#7C4A20" stroke-width="0.7" stroke-miterlimit="10"/>
<path d="M329.05 34.0809C329.05 34.0809 325.41 30.4009 323.57 32.5409C321.73 34.6909 316.59 41.8009 322.57 47.8209C325.23 50.5109 322.61 50.9509 322.4 54.6009C322.19 58.2509 325.87 48.9409 328.09 51.2309C329.15 52.3309 329.23 54.3609 328.33 55.4309C327.36 56.5909 325.37 56.7909 325.61 57.9209C325.83 58.9709 327.15 61.6909 328.88 63.3709C330.07 64.5009 331.47 65.3809 333.01 65.9509C333.01 65.9509 339.97 63.8509 341.31 60.6709C342.65 57.4909 342.09 57.2509 342.61 59.4909C343.3 62.4109 349.33 50.7309 345.82 43.6309C342.31 36.5309 336.78 32.3209 329.05 34.0609V34.0809Z" fill="#402314"/>
<path d="M363.35 99.2708H340.37L336.43 86.2208C335.29 81.7108 336.76 74.5708 338.52 71.8008L344.69 74.1008C352.3 77.3308 353.67 81.2808 354.39 82.1608L363.35 99.2608V99.2708Z" fill="#DF8225"/>
<path d="M321.5 75.2505C321.5 75.2505 323.87 84.1005 337.37 72.2305C337.37 72.2305 342.56 74.1005 349.27 77.8805C355.99 81.6605 345.52 99.2805 345.52 99.2805H314.83L313.56 87.5105L321.5 75.2605V75.2505Z" fill="#DF8225"/>
<path d="M321.44 73.4107C321.44 73.4107 321.51 75.9507 323.45 76.2807C325.39 76.6107 322.09 73.0107 322.09 73.0107L321.44 73.4107Z" fill="#D59D7A"/>
<path d="M342.92 99.2704L341.75 94.9404L341.65 99.2804H342.93L342.92 99.2704Z" fill="#C07F2A"/>
<path d="M336.8 71.4307C336.8 71.4307 337.13 72.3007 335.64 73.8507C334.15 75.4007 337.59 72.0107 337.59 72.0107L336.8 71.4307Z" fill="#DF8225"/>
<path d="M321.44 73.4105C321.44 73.4105 321.68 78.6305 327.03 77.9605C331.57 77.3905 336.74 72.7505 336.76 72.0705C336.78 71.3105 336.06 70.4805 336.06 70.4805C336.06 70.4805 337.63 71.9905 336.61 73.1405C335.59 74.2905 329.9 79.8105 326.12 79.2105C325.49 79.1505 324.86 79.0405 324.24 78.9105C322.06 78.2605 321.71 76.6505 321.44 73.4205V73.4105Z" fill="#C07F2A"/>
<path d="M314.63 96.741C314.63 96.741 314.16 91.551 314.26 89.371C314.37 87.191 312.36 95.661 312.63 97.951L314.69 97.001L314.63 96.741Z" fill="#C07F2A"/>
<path fill-rule="evenodd" clip-rule="evenodd" d="M262.53 45.2301C263.41 44.7201 264.45 44.5801 265.43 44.8401L267.6 45.4101L274.07 47.1201C276.11 47.6601 277.33 49.7501 276.8 51.7901L272.43 68.4301C271.89 70.4701 269.8 71.6902 267.76 71.1502L261.29 69.4402L259.12 68.8702C258.14 68.6102 257.1 68.7502 256.22 69.2602L249.62 73.1101C248.74 73.6201 247.7 73.7601 246.72 73.5001L234.99 70.4002C234.01 70.1402 233.17 69.5001 232.66 68.6301L228.81 62.0201C228.3 61.1401 227.46 60.5101 226.48 60.2501L224.31 59.6801L216.92 57.7301C214.88 57.1901 213.66 55.1001 214.19 53.0601L218.56 36.4201C219.1 34.3801 221.19 33.1601 223.23 33.7001L230.62 35.6501L232.79 36.2201C233.77 36.4801 234.61 37.1201 235.12 37.9901L238.97 44.6001C239.48 45.4801 240.32 46.1201 241.3 46.3701L253.03 49.4701C254.01 49.7301 255.05 49.5901 255.93 49.0801L262.53 45.2301Z" fill="#F9A11B"/>
<path fill-rule="evenodd" clip-rule="evenodd" d="M156.19 3.5H128.28C122.7 3.5 118.15 8.79 118.15 15.3C118.15 21.81 122.7 27.1 128.28 27.1H141.2V27.16C146.72 36.71 154.97 37.44 154.18 33.12C153.63 30.14 153.21 28.8 153.63 27.16H156.12C161.7 27.16 166.25 21.87 166.25 15.36C166.31 8.79 161.82 3.5 156.18 3.5H156.19Z" fill="#BFCCDC"/>
</g>
<defs>
<clipPath id="clip0_1997_8586">
<rect width="438.83" height="105.89" fill="white" transform="translate(1)"/>
</clipPath>
</defs>
</svg>
