<svg width="440" height="106" viewBox="0 0 440 106" fill="none" xmlns="http://www.w3.org/2000/svg">
<g clip-path="url(#clip0_1997_8670)">
<path d="M439.83 0H1V105.89H439.83V0Z" fill="white"/>
<path fill-rule="evenodd" clip-rule="evenodd" d="M241.35 3.11996C241.82 2.63996 242.47 2.36996 243.14 2.35996H244.63L315.88 1.76996C317.29 1.75996 318.43 2.88996 318.45 4.28996L318.66 29.74C318.67 31.15 317.54 32.29 316.14 32.31L244.89 32.89H243.4C242.73 32.91 242.08 33.18 241.61 33.66L238.04 37.29C237.57 37.77 236.92 38.04 236.25 38.05L228.18 38.12C227.51 38.12 226.86 37.86 226.37 37.39L222.74 33.82C222.26 33.35 221.61 33.08 220.93 33.09H219.44L214.35 33.14C212.94 33.15 211.8 32.02 211.78 30.62L211.57 5.17996C211.56 3.76996 212.69 2.62996 214.09 2.60996L219.18 2.56996H220.67C221.34 2.54996 221.99 2.81996 222.48 3.28996L226.11 6.85996C226.59 7.32996 227.24 7.59996 227.92 7.58996L235.99 7.51996C236.66 7.51996 237.31 7.23996 237.78 6.75996L241.35 3.12996V3.11996Z" fill="#23B689"/>
<path fill-rule="evenodd" clip-rule="evenodd" d="M241.47 70.34C241.94 69.86 242.59 69.58 243.26 69.58H244.75L285.46 69.2C286.86 69.19 288.01 70.32 288.03 71.72L288.26 97.16C288.27 98.57 287.14 99.72 285.74 99.73L245.03 100.09H243.54C242.87 100.11 242.22 100.38 241.75 100.86L238.18 104.49C237.71 104.97 237.06 105.25 236.39 105.25L228.32 105.32C227.65 105.32 227 105.06 226.51 104.59L222.88 101.02C222.4 100.55 221.75 100.28 221.07 100.29H219.58L214.49 100.35C213.08 100.36 211.94 99.23 211.92 97.83L211.69 72.39C211.68 70.98 212.81 69.84 214.21 69.82L219.3 69.77H220.79C221.46 69.75 222.11 70.01 222.6 70.49L226.23 74.06C226.71 74.53 227.36 74.8 228.04 74.79L236.11 74.72C236.78 74.72 237.43 74.44 237.9 73.96L241.47 70.33V70.34Z" fill="#7E69AD"/>
<path fill-rule="evenodd" clip-rule="evenodd" d="M112.84 45.0799C113.25 44.5399 113.86 44.1899 114.53 44.0999L116.01 43.8999L156.37 38.5299C157.76 38.3399 159.04 39.3199 159.23 40.7199L162.59 65.9399C162.78 67.3299 161.8 68.6099 160.4 68.7999L120.04 74.1699L118.56 74.3699C117.89 74.4599 117.28 74.8099 116.87 75.3499L113.78 79.3899C113.37 79.9299 112.76 80.2799 112.09 80.3699L104.09 81.4299C103.42 81.5199 102.74 81.3399 102.21 80.9299L98.1699 77.8399C97.6299 77.4299 96.9599 77.2499 96.2899 77.3399L94.8099 77.5399L89.7699 78.2099C88.3799 78.3999 87.0999 77.4199 86.9099 76.0199L83.5499 50.7999C83.3599 49.4099 84.3399 48.1299 85.7399 47.9399L90.7799 47.2699L92.2599 47.0699C92.9299 46.9799 93.6099 47.1599 94.1399 47.5699L98.1799 50.6599C98.7199 51.0699 99.3899 51.2499 100.06 51.1599L108.06 50.0899C108.73 49.9999 109.34 49.6499 109.75 49.1099L112.84 45.0699V45.0799Z" fill="#FAA91E"/>
<path fill-rule="evenodd" clip-rule="evenodd" d="M241.79 36.24C242.26 35.76 242.91 35.48 243.58 35.47L245.07 35.45L285.78 34.96C287.18 34.94 288.34 36.07 288.36 37.47L288.67 62.91C288.69 64.32 287.56 65.47 286.16 65.49L245.45 65.98L243.96 66C243.29 66 242.64 66.28 242.17 66.77L238.62 70.41C238.15 70.89 237.5 71.17 236.83 71.18L228.76 71.28C228.09 71.28 227.43 71.03 226.95 70.56L223.31 67.01C222.83 66.54 222.18 66.28 221.5 66.29L220.01 66.31L214.92 66.37C213.51 66.39 212.36 65.26 212.34 63.86L212.03 38.42C212.01 37.01 213.14 35.86 214.54 35.84L219.63 35.78L221.12 35.76C221.79 35.76 222.45 36.01 222.93 36.48L226.57 40.03C227.05 40.5 227.7 40.76 228.38 40.75L236.45 40.65C237.12 40.65 237.77 40.37 238.24 39.88L241.79 36.24Z" stroke="#FAA91E" stroke-width="2.09" stroke-miterlimit="10" stroke-linecap="round"/>
<path d="M208.37 46.46C207.95 46.19 207.53 45.92 207.11 45.66" stroke="#FFE2B2" stroke-width="2.99" stroke-miterlimit="10" stroke-linecap="round"/>
<path d="M202.03 42.82C175.18 29.48 156.52 46.89 149.89 54.75" stroke="#FFE2B2" stroke-width="2.99" stroke-miterlimit="10" stroke-linecap="round"/>
<path d="M148.09 57.03C147.52 57.8 147.23 58.25 147.23 58.25" stroke="#FFE2B2" stroke-width="2.99" stroke-miterlimit="10" stroke-linecap="round"/>
<path d="M207.96 46.21C206.22 46.53 204.34 48.23 203.33 49.61C206.04 48.68 209.01 48.29 211.86 48.89C210.25 46.48 209.7 43.52 209.47 40.66C208.55 42.25 207.66 44.34 207.96 46.21Z" fill="#FFE2B2"/>
<path d="M47.26 36.0099L47.12 34.4599C47.01 33.5199 47.71 32.6799 48.65 32.5699C57.44 31.7099 65.32 38.1399 66.18 46.9399L66.68 51.8599C56.91 52.8999 48.24 45.7499 47.27 36.0199L47.26 36.0099Z" fill="#35A87E"/>
<path d="M63.9099 88.5699L64.6799 89.9099C65.1699 90.7599 66.1899 91.0199 67.0399 90.5299C74.7099 86.1499 77.4099 76.3899 73.0799 68.7099L70.6299 64.3699C62.0499 69.1999 59.0999 80.0299 63.9099 88.5599V88.5699Z" fill="#35A87E"/>
<path d="M35.58 85.3299L35.64 85.5999C35.94 86.5999 37.07 87.0699 37.97 86.5699C42.8 84.0599 45.34 78.3499 43.59 72.9399L42.94 70.9399C36.95 72.8799 33.63 79.3399 35.57 85.3199L35.58 85.3299Z" fill="#35A87E"/>
<path d="M25.69 55.3799L25.57 55.1299C25.07 54.2299 25.54 53.0999 26.47 52.7599C31.65 51.0099 37.49 53.1799 40.21 58.1299L41.22 59.9799C35.61 63.0199 28.66 60.9499 25.69 55.3799Z" fill="#35A87E"/>
<path d="M72.4701 62.3499L69.3101 52.4699L77.4701 49.8999C80.2001 49.0199 83.1101 50.5299 83.9901 53.2599C84.8701 55.9899 83.3601 58.8999 80.6301 59.7799L72.4701 62.3499Z" fill="#35A87E"/>
<path d="M78.8 55.0499C75.05 43.2299 61.35 37.0199 48.19 41.1899C35.03 45.3599 27.41 58.3199 31.15 70.1499C34.9 81.9699 48.6 88.1799 61.76 84.0099C74.92 79.8399 82.54 66.8799 78.8 55.0499Z" fill="#DBDCDD"/>
<path d="M60.5399 80.1499C60.0699 80.3199 59.5899 80.4299 59.1599 80.5399C53.1799 82.0299 47.2099 80.9699 42.6599 78.0399C41.8599 77.5499 41.1599 76.9799 40.4499 76.3599C38.1599 74.3599 36.4099 71.7799 35.4699 68.7799C34.5299 65.7799 34.4599 62.6799 35.1699 59.7399C35.3499 58.8499 35.6499 57.9799 36.0099 57.1099C38.0399 52.0999 42.3099 47.7299 48.0599 45.5099C48.5299 45.3399 48.9399 45.1899 49.4099 45.0199C49.9299 44.8399 50.4699 44.7099 50.9999 44.5799C56.9399 43.1599 62.9099 44.2199 67.4699 47.1999C68.2099 47.6999 68.8999 48.2199 69.5999 48.7799C71.8899 50.7799 73.5699 53.3199 74.5799 56.3599C75.5199 59.3599 75.5899 62.4599 74.8799 65.3999C74.6799 66.2399 74.4399 67.0899 74.0699 67.9199C72.1099 72.9699 67.8199 77.2799 62.1399 79.5499C61.5199 79.8099 61.0499 79.9799 60.5299 80.1599L60.5399 80.1499Z" fill="#3DB789"/>
<path d="M47.63 58.3399L50.05 55.6699C51.31 54.2899 53.15 53.7399 54.94 54.0999L58.47 54.8999C60.27 55.3199 61.71 56.6099 62.31 58.3999L63.41 61.8199C63.94 63.5599 63.56 65.5199 62.29 66.8399L59.87 69.5099C58.61 70.8899 56.77 71.4399 54.98 71.0799L51.45 70.2799C49.65 69.8599 48.21 68.5699 47.61 66.7799L46.51 63.3599C45.98 61.6199 46.41 59.6499 47.63 58.3399Z" fill="#2D9A73"/>
<path d="M62.0399 79.5599L60.8799 75.8799C60.3799 74.2499 60.7399 72.4599 61.9099 71.2199L64.6499 68.2399C65.8199 66.9999 67.5499 66.4099 69.2299 66.7999L73.1699 67.6699C73.4599 67.7099 73.7699 67.8099 74.0299 67.9699C71.9999 72.9799 67.7099 77.2899 62.0299 79.5599H62.0399Z" fill="#2D9A73"/>
<path d="M74.7899 65.4199C74.2999 65.4799 73.8299 65.4199 73.2999 65.3199L69.3599 64.4499C67.6799 64.0599 66.3199 62.8599 65.8099 61.2199L64.6099 57.3799C64.1099 55.7499 64.4699 53.9599 65.6399 52.7199L68.3299 49.7599C68.6899 49.3899 69.0699 49.0699 69.4599 48.8099C71.7499 50.8099 73.4299 53.3499 74.4399 56.3899C75.4399 59.3799 75.4999 62.4699 74.7899 65.4199Z" fill="#2D9A73"/>
<path d="M59.61 52.3599L55.67 51.4899C53.99 51.0999 52.63 49.8999 52.12 48.2599L50.96 44.5799C56.9 43.1599 62.87 44.2199 67.43 47.1999C67.27 47.4699 67.1 47.7299 66.88 47.9599L64.14 50.9399C63.02 52.1699 61.28 52.6999 59.61 52.3599Z" fill="#2D9A73"/>
<path d="M40.8699 58.26L36.93 57.39C36.57 57.31 36.26 57.21 35.95 57.06C37.98 52.05 42.25 47.69 48 45.46L49.16 49.14C49.66 50.77 49.3 52.56 48.13 53.8L45.4399 56.76C44.2899 58.11 42.5499 58.64 40.8699 58.25V58.26Z" fill="#2D9A73"/>
<path d="M40.3801 76.3099C38.0901 74.3099 36.3401 71.7299 35.4001 68.7299C34.4601 65.7299 34.3901 62.6299 35.1001 59.6899C35.6501 59.6199 36.2201 59.6499 36.7501 59.7499L40.6901 60.6199C42.3701 61.0099 43.7301 62.2099 44.2401 63.8499L45.4401 67.6899C45.9401 69.3199 45.5801 71.1099 44.4101 72.3499L41.7201 75.3099C41.3201 75.7499 40.8801 76.0799 40.3701 76.3099H40.3801Z" fill="#2D9A73"/>
<path d="M59.1001 80.4899C53.1201 81.9799 47.1501 80.9199 42.6001 77.9899C42.7501 77.6699 42.9701 77.3899 43.2401 77.0999L45.9801 74.1199C47.1501 72.8799 48.8801 72.2899 50.5601 72.6799L54.5001 73.5499C56.1801 73.9399 57.5401 75.1399 58.0501 76.7799L59.1101 80.4899H59.1001Z" fill="#2D9A73"/>
</g>
<defs>
<clipPath id="clip0_1997_8670">
<rect width="438.83" height="105.89" fill="white" transform="translate(1)"/>
</clipPath>
</defs>
</svg>
